<svg width="268" height="31" viewBox="0 0 268 31" fill="none" xmlns="http://www.w3.org/2000/svg">
<g opacity="0.6" clip-path="url(#clip0_3082_12307)">
<path d="M6.99254 15.4116L3.49627 18.883L0 15.4116L3.49627 11.9401L6.99254 15.4116ZM15.5219 6.94283L21.5155 12.932L25.0118 9.46054L19.0182 3.47141L15.5219 0L12.0256 3.47141L5.99361 9.46054L9.48986 12.932L15.5219 6.94283ZM27.5475 11.9401L24.0513 15.4116L27.5475 18.883L31.0438 15.4116L27.5475 11.9401ZM15.5219 23.8421L9.5283 17.8911L5.99361 21.3625L11.9872 27.3135L15.4835 30.7849L18.9798 27.3135L25.0118 21.3625L21.5155 17.8911L15.5219 23.8421ZM15.5219 18.883L19.0182 15.4116L15.5219 11.9401L12.0256 15.4116L15.5219 18.883ZM52.5209 19.2263V19.1881C52.5209 16.9375 51.2915 15.793 49.3319 15.0301C50.5614 14.3434 51.5603 13.2753 51.5603 11.3679V11.3298C51.5603 8.65947 49.4089 6.94283 45.9511 6.94283H38.0363V23.8421H46.1429C49.9851 23.8421 52.5209 22.3162 52.5209 19.2263ZM47.8337 12.0164C47.8337 13.2753 46.7961 13.8094 45.144 13.8094H41.6862V10.2235H45.3745C46.95 10.2235 47.8337 10.8338 47.8337 11.9783V12.0164ZM48.794 18.7685C48.794 20.0274 47.7951 20.5996 46.1429 20.5996H41.6862V16.8993H46.0277C47.949 16.8993 48.794 17.5859 48.794 18.7304V18.7685ZM60.3588 23.8421V6.94283H56.6319V23.8421H60.3588ZM80.4909 23.8421V6.94283H76.8027V17.357L68.8112 6.94283H65.3535V23.8421H69.0417V13.1227L77.3023 23.8803H80.4909V23.8421ZM101.238 23.8421L93.9384 6.82839H90.4802L83.1806 23.8421H86.9842L88.5593 20.0655H95.744L97.3192 23.8421H101.238ZM94.4377 16.7849H89.904L92.171 11.2916L94.4377 16.7849ZM119.065 23.8421V6.94283H115.377V17.357L107.385 6.94283H103.928V23.8421H107.616V13.1227L115.877 23.8803H119.065V23.8421ZM138.429 21.1336L136.047 18.7304C134.702 19.9511 133.512 20.714 131.59 20.714C128.67 20.714 126.673 18.3108 126.673 15.4116V15.3734C126.673 12.4742 128.747 10.1091 131.59 10.1091C133.281 10.1091 134.626 10.8338 135.932 12.0164L138.314 9.2698C136.739 7.70576 134.818 6.6758 131.59 6.6758C126.365 6.6758 122.715 10.605 122.715 15.4116V15.4497C122.715 20.2944 126.442 24.1473 131.437 24.1473C134.702 24.1473 136.662 23.0029 138.429 21.1336ZM154.374 23.8421V20.5233H145.153V16.9756H153.183V13.6568H145.153V10.2235H154.259V6.90468H141.426V23.804H154.374V23.8421Z" fill="white"/>
<path d="M167.558 11.3585C167.558 12.6824 168.328 13.2601 171.554 14.0303C175.116 14.8969 176.97 16.1726 176.97 18.9889C176.97 22.1662 174.49 24.0437 170.952 24.0437C168.376 24.0437 165.945 23.1531 163.923 21.3478L165.705 19.2296C167.317 20.6257 168.93 21.42 171.024 21.42C172.854 21.42 174.009 20.5775 174.009 19.2777C174.009 18.0501 173.335 17.4002 170.206 16.6781C166.619 15.8116 164.597 14.7525 164.597 11.6233C164.597 8.68668 167.004 6.71289 170.35 6.71289C172.805 6.71289 174.755 7.45908 176.464 8.8311L174.875 11.0697C173.359 9.93835 171.843 9.33658 170.302 9.33658C168.569 9.33658 167.558 10.2272 167.558 11.3585Z" fill="white"/>
<path d="M195.616 20.5528L197.541 22.1896L195.64 24.3078L193.618 22.5025C192.198 23.4894 190.465 24.0912 188.491 24.0912C183.316 24.0912 179.705 20.1677 179.705 15.4017C179.705 10.6357 183.364 6.66406 188.539 6.66406C193.714 6.66406 197.325 10.5876 197.325 15.3535C197.325 17.2792 196.699 19.0845 195.616 20.5528ZM191.427 20.5528L188.539 18.0976L190.441 15.9312L193.353 18.579C193.931 17.6884 194.22 16.5811 194.22 15.4017C194.22 12.104 191.837 9.38404 188.491 9.38404C185.145 9.38404 182.81 12.0559 182.81 15.3535C182.81 18.6512 185.193 21.3712 188.539 21.3712C189.646 21.3712 190.633 21.0583 191.427 20.5528Z" fill="white"/>
<path d="M215.055 6.95312V16.5091C215.055 21.5399 212.215 24.0673 207.81 24.0673C203.429 24.0673 200.637 21.5399 200.637 16.6536V6.95312H203.598V16.5332C203.598 19.6624 205.21 21.3473 207.858 21.3473C210.482 21.3473 212.095 19.7587 212.095 16.6536V6.95312H215.055Z" fill="white"/>
<path d="M227.222 6.83203L234.635 23.8018H231.506L229.797 19.7339H221.83L220.097 23.8018H217.064L224.477 6.83203H227.222ZM228.714 17.1102L225.801 10.3704L222.913 17.1102H228.714Z" fill="white"/>
<path d="M251.823 23.8025H248.333L244.192 17.9293H240.486V23.8025H237.525V6.95312H245.035C248.91 6.95312 251.293 8.99913 251.293 12.2968C251.293 15.089 249.632 16.7739 247.273 17.4238L251.823 23.8025ZM248.284 12.4653C248.284 10.6119 246.985 9.64903 244.794 9.64903H240.486V15.3056H244.818C246.936 15.3056 248.284 14.1984 248.284 12.4653Z" fill="white"/>
<path d="M267.412 6.95312V9.60089H257.88V13.9817H266.329V16.6295H257.88V21.1548H267.532V23.8025H254.919V6.95312H267.412Z" fill="white"/>
</g>
<defs>
<clipPath id="clip0_3082_12307">
<rect width="267.694" height="31" fill="white"/>
</clipPath>
</defs>
</svg>
