<svg width="142" height="33" viewBox="0 0 142 33" fill="none" xmlns="http://www.w3.org/2000/svg">
<path opacity="0.6" fill-rule="evenodd" clip-rule="evenodd" d="M21.6855 17.394C20.7244 21.1713 17.0999 23.5516 13.3671 22.1005C8.18643 20.083 8.02414 12.3088 13.0775 10.0908C16.0275 8.79562 19.2861 9.94759 21.0649 12.6652C21.077 12.6832 21.0927 12.6986 21.1108 12.7105C21.129 12.7224 21.1494 12.7305 21.1707 12.7343C21.1921 12.7382 21.214 12.7377 21.2352 12.733C21.2564 12.7282 21.2764 12.7192 21.294 12.7066L24.3554 10.5268C24.396 10.4974 24.4234 10.4532 24.4317 10.4038C24.44 10.3544 24.4286 10.3037 24.3999 10.2626C22.2423 7.19072 19.3232 5.59642 15.6424 5.47974C8.79105 5.26334 3.69312 11.9333 5.29696 18.5142C7.22858 26.4347 16.8485 29.3051 22.7865 23.6821C24.5219 22.038 25.5996 19.9472 26.0197 17.4099C26.0234 17.3885 26.0224 17.3666 26.0167 17.3456C26.0111 17.3247 26.0009 17.3052 25.987 17.2885C25.9731 17.2719 25.9557 17.2584 25.936 17.2492C25.9164 17.2399 25.895 17.235 25.8733 17.2349L21.8891 17.2381C21.7809 17.2381 21.713 17.2901 21.6855 17.394ZM46.6578 7.69237C46.6348 7.11977 46.3732 6.58025 45.9306 6.19248C45.488 5.80471 44.9006 5.60047 44.2976 5.62469C43.6946 5.64891 43.1255 5.8996 42.7154 6.32161C42.3053 6.74361 42.0879 7.30238 42.1109 7.87497C42.1339 8.44757 42.3954 8.9871 42.8381 9.37486C43.2807 9.76263 43.8681 9.96687 44.471 9.94266C45.074 9.91844 45.6431 9.66775 46.0532 9.24574C46.4633 8.82373 46.6808 8.26497 46.6578 7.69237ZM114.389 6.86603C114.515 7.12295 114.586 7.4011 114.598 7.68458C114.623 8.25709 114.408 8.81659 114 9.24C113.592 9.66341 113.024 9.91605 112.422 9.94234C112.124 9.95536 111.827 9.91241 111.547 9.81595C111.266 9.71949 111.009 9.57141 110.79 9.38016C110.57 9.18891 110.393 8.95824 110.267 8.70132C110.142 8.44439 110.071 8.16625 110.058 7.88277C110.033 7.31026 110.248 6.75075 110.656 6.32734C111.064 5.90393 111.632 5.65129 112.234 5.62501C112.532 5.61199 112.83 5.65494 113.11 5.7514C113.39 5.84786 113.647 5.99594 113.867 6.18719C114.086 6.37844 114.264 6.60911 114.389 6.86603ZM68.477 23.1507C69.0774 23.1464 69.6884 23.1496 70.31 23.1602C74.6569 23.2334 77.9823 20.869 79.1598 16.6971C79.862 14.2107 79.5554 11.9301 78.2401 9.85531C76.5302 7.15465 73.9303 5.80432 70.4404 5.80432C68.4484 5.80645 66.3343 5.81387 64.0983 5.8266C64.0346 5.8266 64.0028 5.85948 64.0028 5.92525V26.142C64.0028 26.157 64.0058 26.1719 64.0115 26.1858C64.0173 26.1997 64.0257 26.2123 64.0363 26.223C64.047 26.2336 64.0596 26.2421 64.0735 26.2478C64.0874 26.2536 64.1023 26.2565 64.1173 26.2565H68.0983C68.2044 26.2565 68.2574 26.2035 68.2574 26.0974V23.3734C68.2574 23.2249 68.3306 23.1507 68.477 23.1507ZM97.0725 13.8713C99.1346 11.9588 102.263 11.4719 104.627 13.1839C104.776 13.29 104.85 13.2518 104.85 13.0694V5.97298C104.85 5.86691 104.903 5.81387 105.009 5.81387H108.592C108.694 5.81387 108.745 5.86585 108.745 5.9698L108.748 26.021C108.748 26.178 108.669 26.2565 108.509 26.2565H105.076C104.904 26.2565 104.823 26.1717 104.834 26.002L104.863 25.5564C104.873 25.3761 104.809 25.3432 104.669 25.4578C103.775 26.1855 102.708 26.544 101.467 26.5334C98.7432 26.5111 96.4297 24.8723 95.3478 22.4124C94.043 19.4434 94.7177 16.0543 97.0725 13.8713ZM41.2403 19.3288C41.2403 17.4172 40.4809 15.5839 39.1292 14.2322C37.7775 12.8804 35.9441 12.1211 34.0325 12.1211C32.1209 12.1211 30.2876 12.8804 28.9359 14.2322C27.5841 15.5839 26.8248 17.4172 26.8248 19.3288C26.8248 20.2753 27.0112 21.2126 27.3734 22.0871C27.7356 22.9616 28.2666 23.7562 28.9359 24.4255C30.2876 25.7772 32.1209 26.5366 34.0325 26.5366C34.9791 26.5366 35.9163 26.3501 36.7908 25.9879C37.6653 25.6257 38.4599 25.0948 39.1292 24.4255C39.7985 23.7562 40.3294 22.9616 40.6916 22.0871C41.0538 21.2126 41.2403 20.2753 41.2403 19.3288ZM51.8753 12.5761L51.8689 13.0503C51.8647 13.2497 51.9432 13.29 52.1044 13.1712C54.5165 11.3573 58.1761 11.9556 60.1364 14.2372C61.318 15.612 61.9195 17.3473 61.9407 19.4434C61.964 21.7303 61.9683 23.959 61.9534 26.1292C61.9534 26.146 61.9501 26.1625 61.9437 26.178C61.9373 26.1934 61.928 26.2074 61.9161 26.2192C61.9043 26.2311 61.8903 26.2404 61.8748 26.2468C61.8594 26.2532 61.8428 26.2565 61.8261 26.2565H58.2939C58.1602 26.2565 58.0923 26.1897 58.0902 26.0561C58.0562 24.0619 58.0584 22.0899 58.0966 20.1403C58.1411 17.9795 57.5588 15.927 55.0098 16.0193C53.1514 16.0893 51.8976 17.464 51.888 19.3193C51.8753 21.5532 51.8732 23.8062 51.8817 26.0783C51.8817 26.1256 51.8629 26.1709 51.8295 26.2043C51.796 26.2378 51.7507 26.2565 51.7035 26.2565H48.2157C48.1541 26.2565 48.095 26.2321 48.0515 26.1885C48.0079 26.1449 47.9834 26.0858 47.9834 26.0242L47.9802 12.6079C47.9802 12.4764 48.046 12.4106 48.1775 12.4106L51.713 12.4075C51.8233 12.4075 51.8774 12.4637 51.8753 12.5761ZM86.5553 22.4888C86.5595 22.4591 86.569 22.4325 86.5839 22.4092C86.5924 22.3944 86.6041 22.3827 86.6189 22.3742C89.0777 20.607 91.5323 18.8451 93.9826 17.0885C94.0226 17.0602 94.052 17.0193 94.0664 16.9722C94.0808 16.925 94.0793 16.8742 94.0621 16.8276C92.7256 13.2476 88.8656 11.3796 85.1901 12.4297C80.7318 13.6994 78.622 19.0551 81.12 23.017C83.809 27.2908 90.1257 27.8031 93.4702 23.9144C93.5954 23.7701 93.5816 23.6397 93.4289 23.523L90.6858 21.4036C90.5861 21.3251 90.4959 21.3357 90.4153 21.4354C89.5922 22.4453 88.3405 22.8431 86.6603 22.6288C86.5775 22.6182 86.5425 22.5715 86.5553 22.4888ZM125.525 26.0051L125.547 25.5469C125.554 25.4175 125.504 25.3899 125.398 25.4642C123.435 26.8219 121.331 26.9131 119.084 25.7378C114.113 23.1379 114.193 15.5101 119.122 12.9134C121.29 11.7699 123.358 11.8559 125.324 13.1712C125.479 13.2751 125.552 13.2338 125.544 13.0471L125.522 12.5825C125.515 12.4658 125.57 12.4075 125.687 12.4075H129.194C129.353 12.4075 129.433 12.4881 129.433 12.6493V26.021C129.433 26.178 129.353 26.2565 129.194 26.2565H125.764C125.596 26.2565 125.516 26.1727 125.525 26.0051ZM46.3096 12.5157C46.3096 12.5014 46.3068 12.4874 46.3013 12.4742C46.2959 12.4611 46.2879 12.4492 46.2779 12.4391C46.2678 12.4291 46.2559 12.4211 46.2428 12.4157C46.2297 12.4103 46.2156 12.4075 46.2014 12.4075H42.5227C42.494 12.4075 42.4665 12.4189 42.4462 12.4391C42.4259 12.4594 42.4145 12.487 42.4145 12.5157V26.1483C42.4145 26.177 42.4259 26.2045 42.4462 26.2248C42.4665 26.2451 42.494 26.2565 42.5227 26.2565H46.2014C46.2156 26.2565 46.2297 26.2537 46.2428 26.2483C46.2559 26.2429 46.2678 26.2349 46.2779 26.2248C46.2879 26.2148 46.2959 26.2029 46.3013 26.1897C46.3068 26.1766 46.3096 26.1625 46.3096 26.1483V12.5157ZM114.218 12.4433C114.238 12.4641 114.25 12.4925 114.25 12.522V26.142C114.25 26.1715 114.238 26.1998 114.218 26.2207C114.197 26.2416 114.168 26.2533 114.139 26.2533H110.467C110.437 26.2533 110.409 26.2416 110.388 26.2207C110.367 26.1998 110.355 26.1715 110.355 26.142V12.522C110.355 12.4925 110.367 12.4641 110.388 12.4433C110.409 12.4224 110.437 12.4106 110.467 12.4106H114.139C114.168 12.4106 114.197 12.4224 114.218 12.4433ZM137 22.1101C137 22.0755 136.986 22.0423 136.962 22.0178C136.937 21.9934 136.904 21.9796 136.87 21.9796H131.466C131.431 21.9796 131.398 21.9934 131.374 22.0178C131.349 22.0423 131.336 22.0755 131.336 22.1101V27.399C131.336 27.4336 131.349 27.4667 131.374 27.4912C131.398 27.5157 131.431 27.5294 131.466 27.5294H136.87C136.904 27.5294 136.937 27.5157 136.962 27.4912C136.986 27.4667 137 27.4336 137 27.399V22.1101ZM68.2829 19.1697L68.232 9.79484C68.2315 9.77577 68.2349 9.75681 68.2419 9.73907C68.2489 9.72132 68.2594 9.70516 68.2728 9.69152C68.2861 9.67789 68.302 9.66705 68.3196 9.65966C68.3372 9.65226 68.3561 9.64846 68.3752 9.64846L70.6123 9.63891C71.8073 9.63222 72.9561 10.1065 73.8059 10.9576C74.6557 11.8086 75.137 12.9666 75.1438 14.1768V14.7114C75.1472 15.3107 75.034 15.9048 74.8106 16.4597C74.5873 17.0147 74.2582 17.5196 73.8421 17.9457C73.426 18.3718 72.9312 18.7108 72.3857 18.9432C71.8403 19.1756 71.255 19.2969 70.6632 19.3002L68.4261 19.3097C68.3887 19.3097 68.3527 19.2951 68.3259 19.2689C68.2992 19.2427 68.2837 19.2071 68.2829 19.1697ZM101.815 22.7051C102.666 22.7081 103.483 22.3572 104.087 21.7297C104.69 21.1022 105.031 20.2495 105.034 19.3591C105.038 18.4687 104.703 17.6136 104.103 16.9819C103.504 16.3502 102.689 15.9937 101.839 15.9907C100.988 15.9877 100.171 16.3386 99.5669 16.9661C98.9632 17.5936 98.6222 18.4463 98.6191 19.3367C98.616 20.2271 98.951 21.0822 99.5503 21.7139C100.15 22.3456 100.964 22.7022 101.815 22.7051ZM36.3332 21.7501C35.7085 22.3721 34.8673 22.7156 33.9947 22.7049C33.1221 22.6942 32.2895 22.3303 31.6802 21.6932C31.0709 21.0561 30.7347 20.198 30.7455 19.3077C30.7564 18.4174 31.1135 17.5677 31.7382 16.9457C32.3629 16.3237 33.2041 15.9802 34.0767 15.9909C34.9493 16.0016 35.7819 16.3655 36.3912 17.0026C37.0005 17.6397 37.3368 18.4978 37.3259 19.3881C37.315 20.2784 36.9579 21.1281 36.3332 21.7501ZM84.6396 17.3081C84.0477 18.0305 83.914 19.087 84.0413 20.0066C84.0457 20.034 84.0569 20.0598 84.0739 20.0817C84.0908 20.1035 84.113 20.1207 84.1382 20.1316C84.1634 20.1424 84.1908 20.1466 84.2179 20.1436C84.2449 20.1407 84.2707 20.1308 84.2927 20.1148L88.9451 16.7958C88.9706 16.7778 88.991 16.7535 89.0041 16.7252C89.0173 16.6969 89.0229 16.6655 89.0203 16.6342C89.0178 16.6028 89.0072 16.5725 88.9895 16.5462C88.9719 16.5199 88.9478 16.4984 88.9197 16.4839C87.2119 15.6395 85.7852 15.9143 84.6396 17.3081ZM124.754 21.7455C124.146 22.3687 123.327 22.7139 122.476 22.705C121.625 22.6961 120.813 22.3338 120.218 21.6979C119.623 21.0621 119.294 20.2046 119.304 19.3143C119.313 18.424 119.66 17.5736 120.268 16.9503C120.876 16.3271 121.696 15.9819 122.546 15.9908C123.397 15.9998 124.209 16.362 124.804 16.9979C125.399 17.6337 125.728 18.4912 125.719 19.3815C125.709 20.2719 125.363 21.1222 124.754 21.7455Z" fill="white"/>
</svg>
