<svg width="188" height="43" viewBox="0 0 188 43" fill="none" xmlns="http://www.w3.org/2000/svg">
<g opacity="0.6">
<path d="M31.9007 23.8072C31.384 24.123 30.7811 24.1804 30.3217 23.922C29.7476 23.5775 29.4031 22.8024 29.4031 21.7402V18.4961C29.4031 16.9458 28.8002 15.8262 27.7667 15.5391C26.0154 15.0223 24.6948 17.1755 24.2068 17.9793L21.1062 22.9459V16.831C21.0775 15.4243 20.6182 14.5917 19.7569 14.3333C19.1828 14.1611 18.3215 14.2472 17.4889 15.5104L10.5701 26.5919C9.65147 24.8407 9.16342 22.8885 9.16342 20.9076C9.16342 14.2185 14.5319 8.79255 21.1062 8.79255C27.6805 8.79255 33.0491 14.2185 33.0491 20.9076V20.9363V20.965C33.1065 22.2569 32.7046 23.2905 31.9007 23.8072ZM35.6903 20.9076V20.8789V20.8502C35.6616 12.7256 29.116 6.09393 21.1062 6.09393C13.0678 6.09393 6.52222 12.7256 6.52222 20.9076C6.52222 29.0609 13.0678 35.7213 21.1062 35.7213C24.8097 35.7213 28.3121 34.3146 31.0107 31.7595C31.5562 31.2428 31.5849 30.4102 31.0682 29.8647C30.5801 29.3193 29.7476 29.2906 29.2021 29.7786C29.2021 29.7786 29.2021 29.7786 29.1734 29.8073C26.9915 31.8744 24.0632 33.0514 21.0488 33.0514C17.5177 33.0514 14.3597 31.5011 12.1778 29.0322L18.4076 19.0416V23.6637C18.4076 25.8742 19.2689 26.592 19.9866 26.7929C20.7043 26.9939 21.7952 26.8503 22.9723 24.9843L26.3886 19.4435C26.5035 19.2712 26.5896 19.099 26.7044 18.9841V21.7976C26.7044 23.8646 27.537 25.5297 28.9724 26.3336C30.2643 27.08 31.9007 26.9939 33.25 26.1613C34.9151 25.0704 35.8051 23.1756 35.6903 20.9076ZM56.016 15.8549C56.3605 16.0559 56.6763 16.5439 56.6763 16.9745C56.6763 17.6635 56.1022 18.2377 55.4419 18.2377C55.2696 18.2377 55.1261 18.1803 54.9825 18.1516C54.2074 17.5774 53.2313 17.2042 52.1978 17.2042C49.7575 17.2042 48.0924 19.1851 48.0924 21.6541C48.0924 24.123 49.7862 26.0752 52.1978 26.0752C53.4035 26.0752 54.4945 25.5871 55.2983 24.812C55.4993 24.6685 55.7576 24.5823 56.016 24.5823C56.6763 24.5823 57.1931 25.0991 57.1931 25.7594C57.1931 26.19 56.9347 26.5632 56.6189 26.7642C55.4419 27.769 53.8629 28.4293 52.2265 28.4293C48.4943 28.4293 45.4512 25.3575 45.4512 21.5679C45.4512 17.7784 48.4943 14.7065 52.2265 14.7065C53.6045 14.6778 54.9251 15.1085 56.016 15.8549ZM62.8487 18.7258C65.4038 18.7258 67.5282 20.8789 67.5282 23.5488C67.5282 26.19 65.3751 28.458 62.8487 28.458C60.1788 28.458 57.9682 26.2187 57.9682 23.5488C57.9682 20.8789 60.1788 18.7258 62.8487 18.7258ZM62.82 26.0752C63.9396 26.0752 64.887 25.013 64.887 23.5775C64.887 22.1421 63.9396 21.2234 62.82 21.2234C61.6142 21.2234 60.6094 22.1134 60.6094 23.5775C60.6094 24.9843 61.6142 26.0752 62.82 26.0752ZM69.1359 26.9652V20.1899C69.1359 19.4435 69.7101 18.8406 70.4565 18.8406C71.1742 18.8406 71.7771 19.4435 71.7771 20.1899V26.9652C71.7771 27.7116 71.1742 28.3145 70.4565 28.3145C69.7388 28.3145 69.1359 27.6829 69.1359 26.9652ZM68.9349 16.2855C68.9349 15.3956 69.624 14.7065 70.4565 14.7065C71.3178 14.7065 72.0068 15.4243 72.0068 16.2855C72.0068 17.1468 71.3178 17.8358 70.4565 17.8358C69.5952 17.8071 68.9349 17.1181 68.9349 16.2855ZM76.8298 23.2904V26.9652C76.8298 27.7116 76.227 28.3145 75.5092 28.3145C74.7915 28.3145 74.1886 27.7116 74.1886 26.9652V19.8741C74.1886 19.2999 74.648 18.8406 75.2222 18.8406C75.7963 18.8406 76.227 19.3286 76.227 19.8741C77.2892 18.8693 78.2366 18.7258 79.1265 18.7258C81.7677 18.7258 82.9448 20.7067 82.9448 22.9747V26.9652C82.9448 27.7116 82.3419 28.3145 81.6242 28.3145C80.9065 28.3145 80.3036 27.7116 80.3036 26.9652V23.2904C80.3036 22.1421 80.16 21.166 78.4949 21.166C77.3179 21.166 76.8298 22.1421 76.8298 23.2904ZM91.5 24.6972C91.1842 24.6972 90.9832 24.5536 90.811 24.3527L87.7391 21.0225V26.9652C87.7391 27.7116 87.1363 28.3145 86.4185 28.3145C85.7008 28.3145 85.0979 27.7116 85.0979 26.9652V15.1946C85.1841 14.9936 85.385 14.8501 85.586 14.8501C85.8157 14.8501 86.0166 15.0511 86.1602 15.1946L91.0694 20.7067C91.2129 20.8789 91.3851 20.965 91.5 20.965C91.5861 20.965 91.7871 20.8789 91.9306 20.7067L96.8398 15.1946C96.9833 15.0511 97.1556 14.8501 97.414 14.8501C97.6436 14.8501 97.8446 14.9936 97.902 15.1946V26.9652C97.902 27.7116 97.3278 28.3145 96.5814 28.3145C95.8637 28.3145 95.2608 27.7116 95.2608 26.9652V21.0225L92.189 24.3527C91.9593 24.5536 91.7584 24.6972 91.5 24.6972ZM104.189 26.0752C105.366 26.0752 106.371 25.013 106.371 23.5775C106.371 22.1421 105.338 21.1947 104.189 21.1947C103.041 21.1947 102.093 22.1708 102.093 23.5775C102.093 24.9556 103.012 26.0752 104.189 26.0752ZM107.003 27.281L106.945 26.9652C106.429 27.97 104.792 28.4293 103.759 28.4293C101.29 28.4293 99.4523 26.19 99.4523 23.5201C99.4523 20.8789 101.318 18.6971 103.902 18.6971C104.333 18.6971 105.826 18.8119 106.974 20.1612L107.031 19.8454C107.031 19.2712 107.462 18.8119 108.036 18.8119C108.61 18.8119 109.07 19.2999 109.07 19.8454V27.2523C109.07 27.8264 108.61 28.2858 108.036 28.2858C107.433 28.3145 107.003 27.8264 107.003 27.281ZM116.333 21.166H116.046C114.381 21.2521 114.065 22.1995 114.065 23.2904V26.9652C114.065 27.7116 113.462 28.3145 112.744 28.3145C112.027 28.3145 111.424 27.7116 111.424 26.9652V19.8741C111.424 19.2999 111.883 18.8406 112.457 18.8406C113.032 18.8406 113.462 19.3286 113.462 19.8741C114.438 18.9554 115.242 18.7545 116.046 18.7258H116.304C116.936 18.7258 117.51 19.2712 117.51 19.9602C117.539 20.5918 116.965 21.166 116.333 21.166ZM126.525 26.3336C126.639 26.5345 126.726 26.7355 126.726 26.9652C126.726 27.6542 126.094 28.2858 125.405 28.2858C124.946 28.2858 124.544 27.9413 124.228 27.5393L121.185 24.0082V26.9365C121.185 27.6829 120.582 28.2858 119.864 28.2858C119.146 28.2858 118.544 27.6829 118.544 26.9365V16.1707C118.544 15.4243 119.118 14.8214 119.864 14.8214C120.611 14.8214 121.185 15.4243 121.185 16.1707V22.8885L124.228 19.5296C124.544 19.1851 124.917 18.8119 125.376 18.8119C126.037 18.8119 126.639 19.4148 126.639 20.1038C126.639 20.3047 126.582 20.5344 126.467 20.7067L124.056 23.3479L126.525 26.3336ZM131.692 21.1947C130.974 21.1947 129.797 21.5679 129.797 22.6876H133.616C133.587 21.5679 132.381 21.1947 131.692 21.1947ZM135.137 24.3814H129.797C129.797 25.9604 131.319 26.2187 131.979 26.2187C132.467 26.2187 133.156 26.1326 133.702 25.8742C133.874 25.7594 134.132 25.6733 134.391 25.6733C134.965 25.6733 135.453 26.1613 135.453 26.7642C135.453 27.1661 135.195 27.5106 134.879 27.7116C134.075 28.3145 133.013 28.458 132.008 28.458C129.338 28.458 127.127 27.0226 127.127 23.6637C127.127 21.0225 128.477 18.7258 131.635 18.7258C134.19 18.7258 136.113 20.3909 136.171 23.3479C136.171 23.8933 135.711 24.3814 135.137 24.3814ZM142.487 28.4293H141.769C139.759 28.4293 138.582 27.5393 138.582 24.4101V21.166H137.893C137.262 21.166 136.716 20.5918 136.716 19.9602C136.716 19.2712 137.29 18.7258 137.893 18.7258H138.582V16.2281C138.582 15.4817 139.156 14.8788 139.903 14.8788C140.621 14.8788 141.223 15.4817 141.223 16.2281V18.7258H142.314C142.946 18.7258 143.491 19.2712 143.491 19.9602C143.491 20.5918 142.917 21.166 142.314 21.166H141.223V23.8933C141.223 25.702 141.31 26.0752 142.113 26.0752H142.487C143.118 26.0752 143.664 26.592 143.664 27.2523C143.664 27.8838 143.118 28.4293 142.487 28.4293ZM155.262 15.8549C155.607 16.0559 155.922 16.5439 155.922 16.9745C155.922 17.6635 155.348 18.2377 154.688 18.2377C154.516 18.2377 154.372 18.1803 154.229 18.1516C153.453 17.5774 152.477 17.2042 151.444 17.2042C149.004 17.2042 147.338 19.1851 147.338 21.6541C147.338 24.123 149.032 26.0752 151.444 26.0752C152.65 26.0752 153.74 25.5871 154.544 24.812C154.745 24.6685 155.004 24.5823 155.262 24.5823C155.922 24.5823 156.439 25.0991 156.439 25.7594C156.439 26.19 156.181 26.5632 155.865 26.7642C154.688 27.769 153.109 28.4293 151.472 28.4293C147.74 28.4293 144.697 25.3575 144.697 21.5679C144.697 17.7784 147.74 14.7065 151.472 14.7065C152.85 14.6778 154.2 15.1085 155.262 15.8549ZM161.951 26.0752C163.128 26.0752 164.133 25.013 164.133 23.5775C164.133 22.1421 163.099 21.1947 161.951 21.1947C160.774 21.1947 159.855 22.1708 159.855 23.5775C159.855 24.9556 160.803 26.0752 161.951 26.0752ZM164.765 27.281L164.707 26.9652C164.19 27.97 162.554 28.4293 161.521 28.4293C159.052 28.4293 157.214 26.19 157.214 23.5201C157.214 20.8789 159.08 18.6971 161.664 18.6971C162.095 18.6971 163.588 18.8119 164.736 20.1612L164.793 19.8454C164.793 19.2712 165.224 18.8119 165.798 18.8119C166.372 18.8119 166.832 19.2999 166.832 19.8454V27.2523C166.832 27.8264 166.372 28.2858 165.798 28.2858C165.195 28.3145 164.765 27.8264 164.765 27.281ZM174.038 26.0752C175.215 26.0752 176.133 24.9556 176.133 23.5775C176.133 22.1421 175.186 21.1947 174.038 21.1947C172.86 21.1947 171.856 22.1421 171.856 23.5775C171.856 25.013 172.86 26.0752 174.038 26.0752ZM171.856 27.6542V31.0131C171.856 31.7595 171.253 32.3624 170.535 32.3624C169.817 32.3624 169.214 31.7595 169.214 31.0131V19.8741C169.214 19.2999 169.674 18.8406 170.248 18.8406C170.822 18.8406 171.253 19.3286 171.253 19.9889C172.229 18.9841 173.435 18.7258 174.353 18.7258C176.908 18.7258 178.803 20.8789 178.803 23.5488C178.803 26.19 176.995 28.458 174.497 28.458C173.722 28.4293 172.573 28.1996 171.856 27.6542Z" fill="white"/>
</g>
</svg>
