<svg width="176" height="49" viewBox="0 0 176 49" fill="none" xmlns="http://www.w3.org/2000/svg">
<g opacity="0.6" clip-path="url(#clip0_143_2955)">
<path d="M68.1234 19.5474C67.951 17.2772 66.0831 14.1018 61.4708 14.1018C57.5052 14.1018 54.3872 16.8462 54.3872 22.2343C54.3872 27.5507 57.3327 30.3238 61.4277 30.3238C65.2928 30.3238 67.4768 27.9817 68.1234 24.6339H64.9049C64.5169 26.5305 63.2813 27.5363 61.4996 27.5363C58.7696 27.5363 57.6776 25.0505 57.6776 22.2774C57.6776 17.9238 59.9478 16.8893 61.4996 16.8893C64.1577 16.8893 64.6463 18.6279 64.9049 19.5474H68.1234ZM117.479 24.2028C117.479 20.0791 114.706 18.1968 111.645 18.1968C108.585 18.1968 105.812 20.0791 105.812 24.2028C105.812 28.3265 108.585 30.2088 111.645 30.2088C114.72 30.2088 117.479 28.3122 117.479 24.2028ZM114.39 24.2028C114.39 25.654 113.959 27.68 111.645 27.68C109.332 27.68 108.901 25.6684 108.901 24.2028C108.901 22.7372 109.332 20.7257 111.645 20.7257C113.973 20.7257 114.39 22.7372 114.39 24.2028ZM103.714 15.395H100.711V18.4842H99.1736V20.6251H100.711V27.5507C100.711 29.0306 101.185 30.022 103.771 30.022H104.159C104.634 30.022 105.108 30.0077 105.582 29.9789V27.7087C105.366 27.7231 105.151 27.7518 104.964 27.7518C103.743 27.7518 103.714 27.4932 103.714 26.8322V20.6251H105.582V18.4842H103.714V15.395ZM68.9999 29.9071H72.0029V23.9585C72.0029 22.6941 72.4339 21.2285 74.776 21.2285C75.049 21.2285 75.3795 21.2285 75.6381 21.2717V18.2255C75.4513 18.2112 75.2502 18.1824 75.0634 18.1824C73.2386 18.1824 72.5489 19.3032 71.9311 20.4526H71.8879V18.4842H69.0143V29.9071H68.9999Z" fill="white"/>
<path d="M87.4072 18.4986H84.2318L81.8897 26.9041H81.8466L79.404 18.4986H76.0562L80.2661 30.3813C79.9787 31.9474 79.3896 32.1055 78.2976 32.1055C78.039 32.1055 77.8522 32.0768 77.7229 32.0624V34.4619C78.1539 34.4763 78.6712 34.505 79.0735 34.505C81.6886 34.505 82.0765 33.9447 83.499 29.7203L87.4072 18.4986Z" fill="white"/>
<path d="M90.8837 24.4615C90.8837 22.6367 91.3722 20.7976 93.4413 20.7976C95.3523 20.7976 95.9989 22.4931 95.9989 24.2891C95.9989 25.6397 95.4672 27.7375 93.5275 27.7375C91.6021 27.7375 90.8837 26.1426 90.8837 24.4615ZM90.8837 18.4986H88.01V34.3758H90.9986V28.456H91.0417C91.401 29.0738 92.1625 30.2089 94.2603 30.2089C97.6512 30.2089 99.0593 27.2059 99.0593 24.0736C99.0593 20.1223 96.8322 18.1969 94.3177 18.1969C92.3062 18.1969 91.4584 19.2458 90.8981 20.151H90.855V18.4986H90.8837Z" fill="white"/>
<path d="M17.6333 28.2117C20.8231 34.8499 26.1681 39.0311 31.0965 41.6461C31.1109 41.6605 31.5276 41.876 31.5276 41.876C31.5276 41.876 31.9443 41.6605 31.9586 41.6461C40.3067 37.2494 49.8329 28.3122 48.08 10.6822L44.4017 9.08728C43.712 14.5473 40.3498 19.1452 35.6657 22.4787C35.0335 22.9241 34.3725 23.3551 33.6828 23.7574L34.3438 28.7289C34.43 29.3899 33.7978 29.9502 33.1368 29.9502H29.789C29.128 29.9502 28.4815 29.3899 28.582 28.7289L28.9269 26.0564C25.7084 27.2921 22.2456 28.0249 18.8115 28.1973C18.4092 28.1973 18.0212 28.2117 17.6333 28.2117Z" fill="white"/>
<path d="M14.975 10.6823C14.3428 17.1337 15.2049 22.4213 16.9865 26.7606C17.5756 26.7749 18.1504 26.7606 18.7395 26.7318C22.2885 26.5594 25.8662 25.7404 29.1566 24.3898L29.4296 22.292C28.3951 21.6023 27.7054 20.4241 27.7054 19.0878C27.7054 16.9757 29.4296 15.2514 31.5418 15.2514C33.6539 15.2514 35.3781 16.9757 35.3781 19.0878C35.3781 19.993 35.062 20.8408 34.516 21.5017C34.6166 21.4299 34.7172 21.358 34.8178 21.2862C39.1283 18.2257 42.2319 14.0301 42.9359 9.11613C38.8984 10.1794 35.2201 8.78566 32.9499 5.78265H31.6136H31.4843H30.148C27.7054 9.01555 23.6391 10.3805 19.2568 8.84313L14.975 10.6823Z" fill="white"/>
<path d="M46.112 3.8714C46.3563 3.8714 46.5862 3.97198 46.7442 4.13003C46.9023 4.28809 47.0029 4.51798 47.0029 4.76224C47.0029 5.00651 46.9023 5.2364 46.7442 5.39445C46.5862 5.55251 46.3563 5.65308 46.112 5.65308C45.8678 5.65308 45.6379 5.55251 45.4798 5.39445C45.3218 5.2364 45.2212 5.00651 45.2212 4.76224C45.2212 4.51798 45.3218 4.28809 45.4798 4.13003C45.6379 3.98635 45.8678 3.8714 46.112 3.8714ZM45.7816 5.33698V4.17314H46.1982C46.2845 4.17314 46.3419 4.18751 46.3994 4.20188C46.4425 4.21624 46.4712 4.25935 46.5 4.30245C46.5287 4.35993 46.5431 4.4174 46.5431 4.47487C46.5431 4.56109 46.5143 4.63293 46.4712 4.6904C46.4281 4.74787 46.3563 4.77661 46.2701 4.79098C46.3132 4.80535 46.3419 4.83409 46.3563 4.84845C46.3994 4.89156 46.4281 4.94903 46.4569 4.99214L46.6293 5.32261C46.6437 5.30824 46.658 5.30824 46.6724 5.29387C46.8161 5.15019 46.9023 4.9634 46.9023 4.74787C46.9023 4.53235 46.8161 4.34556 46.6724 4.20188C46.5287 4.05819 46.3419 3.97198 46.1264 3.97198C45.9109 3.97198 45.7241 4.05819 45.5804 4.20188C45.4367 4.34556 45.3505 4.53235 45.3505 4.74787C45.3505 4.9634 45.4367 5.15019 45.5804 5.29387C45.7241 5.43756 45.9109 5.52377 46.1264 5.52377C46.2701 5.52377 46.3994 5.48067 46.5143 5.42319L46.3419 5.07835C46.2988 4.97777 46.2557 4.9203 46.227 4.89156C46.1982 4.86282 46.1839 4.83408 46.1551 4.81972C46.1264 4.80535 46.0977 4.80535 46.0546 4.80535H45.9109V5.32261H45.7816V5.33698ZM45.8965 4.6904H46.1695C46.227 4.6904 46.2701 4.67603 46.2988 4.67603C46.3276 4.66166 46.3563 4.63293 46.3707 4.60419C46.385 4.57545 46.3994 4.53235 46.3994 4.50361C46.3994 4.44614 46.385 4.40303 46.3419 4.37429C46.3132 4.33119 46.2557 4.31682 46.1982 4.31682H45.8965V4.6904Z" fill="white"/>
<path d="M118.874 29.907H125.541C130.628 29.907 131.935 25.151 131.935 21.8319C131.935 18.9151 130.858 14.4896 125.671 14.4896H118.874V29.907ZM164.005 18.4984H160.83L158.488 26.904H158.445L156.002 18.4984H152.654L156.864 30.3811C156.591 31.9473 155.988 32.1053 154.896 32.1053C154.637 32.1053 154.45 32.0766 154.307 32.0622V34.4617C154.738 34.4761 155.255 34.5049 155.657 34.5049C158.272 34.5049 158.66 33.9445 160.083 29.7202L164.005 18.4984ZM151.649 14.504H148.646V29.907H151.649V14.504ZM143.832 18.4984V29.907H146.835V18.4984H143.832ZM146.835 14.3459H143.832V17.1334H146.835V14.3459ZM142.223 21.4871C142.223 18.6708 139.277 18.1823 137.668 18.1823C135.326 18.1823 132.912 18.6708 132.567 22.1767H135.47C135.556 21.5158 135.815 20.5818 137.309 20.5818C138.085 20.5818 139.277 20.6537 139.277 21.9037C139.277 22.5503 138.703 22.7371 138.229 22.809L135.527 23.2113C133.616 23.4843 132.208 24.6337 132.208 26.8609C132.208 29.2173 133.961 30.1943 135.685 30.1943C137.726 30.1943 138.688 29.246 139.378 28.542C139.45 29.1885 139.493 29.361 139.665 29.8926H142.898V29.4615C142.539 29.3322 142.237 29.0305 142.237 27.6799V21.4871H142.223ZM139.277 25.812C139.277 27.2057 137.927 28.0678 136.591 28.0678C136.016 28.0678 135.197 27.7517 135.197 26.6884C135.197 25.4384 136.116 25.1654 137.237 24.9786C138.473 24.7774 138.976 24.5906 139.277 24.3607V25.812ZM122.021 17.1622H125.11C126.49 17.1622 128.645 17.5357 128.645 22.0762C128.645 24.605 127.768 27.2488 125.153 27.2488H122.021V17.1622Z" fill="white"/>
<path d="M165.872 13.0817V14.3318C165.872 14.3605 165.858 14.3893 165.844 14.418C165.829 14.4467 165.801 14.4467 165.772 14.4467H165.571C165.542 14.4467 165.513 14.4324 165.484 14.418C165.456 14.4036 165.456 14.3749 165.456 14.3318V11.1276C165.456 11.0989 165.47 11.0702 165.484 11.0414C165.499 11.0127 165.528 11.0127 165.571 11.0127H166.72C167.036 11.0127 167.309 11.0989 167.51 11.2713C167.683 11.4437 167.798 11.688 167.798 12.0041V12.076C167.798 12.3059 167.74 12.507 167.597 12.6794C167.482 12.8231 167.309 12.9381 167.094 13.0099L167.755 14.2743C167.769 14.2887 167.769 14.3031 167.783 14.3174C167.783 14.3318 167.783 14.3462 167.783 14.3605C167.783 14.3893 167.769 14.4036 167.755 14.418C167.74 14.4324 167.712 14.4467 167.697 14.4467H167.424C167.395 14.4467 167.367 14.4324 167.352 14.418C167.338 14.4036 167.324 14.3893 167.309 14.3605L166.648 13.0817H165.872ZM166.505 9.86322C167.309 9.86322 168.042 10.1937 168.574 10.7253C169.105 11.257 169.436 11.9897 169.436 12.7944C169.436 13.599 169.105 14.3318 168.574 14.8634C168.042 15.3951 167.309 15.7255 166.505 15.7255C165.7 15.7255 164.967 15.3951 164.436 14.8634C163.904 14.3318 163.573 13.599 163.573 12.7944C163.573 11.9897 163.904 11.257 164.436 10.7253C164.953 10.1937 165.7 9.86322 166.505 9.86322ZM168.286 10.9983C167.827 10.5385 167.194 10.2512 166.49 10.2512C165.786 10.2512 165.154 10.5385 164.694 10.9983C164.234 11.4581 163.947 12.0903 163.947 12.7944C163.947 13.4984 164.234 14.1306 164.694 14.5904C165.154 15.0502 165.786 15.3376 166.49 15.3376C167.194 15.3376 167.827 15.0502 168.286 14.5904C168.746 14.1306 169.033 13.4984 169.033 12.7944C169.033 12.0903 168.746 11.4581 168.286 10.9983ZM165.872 11.4294V12.6794H166.691C166.878 12.6794 167.051 12.622 167.18 12.5214C167.281 12.4208 167.352 12.2915 167.352 12.1047V12.0185C167.352 11.8173 167.281 11.6736 167.18 11.5731C167.051 11.4581 166.878 11.415 166.691 11.415H165.872V11.4294Z" fill="white"/>
</g>
<defs>
<clipPath id="clip0_143_2955">
<rect width="174.246" height="47.7281" fill="white" transform="translate(0.765625 0.761353)"/>
</clipPath>
</defs>
</svg>
