<svg width="175" height="29" viewBox="0 0 175 29" fill="none" xmlns="http://www.w3.org/2000/svg">
<g opacity="0.6" clip-path="url(#clip0_143_2973)">
<path d="M30.2917 6.23663V9.52418H29.256C26.0303 9.52418 23.9562 11.7927 23.9562 15.1962V22.9088H20.3853V6.46336H23.9562V10.6604C24.5333 8.1651 26.1462 6.12327 29.256 6.12327C29.6012 6.12327 29.9465 6.12327 30.2917 6.23663ZM49.8843 6.45434L42.9021 22.8985L40.269 28.796H36.8346L39.5824 22.6718L32.7136 6.45305H36.2626L41.1849 18.5881L46.2219 6.34098H49.8843V6.45434ZM70.3581 14.6256C70.3581 20.2937 66.2383 23.1278 62.3479 23.1278C59.3734 23.1278 57.2002 21.5407 56.6282 20.1804H56.5122V28.796H52.967V6.46336H56.5135V9.07073H56.6282C57.2002 7.82373 59.3734 6.12327 62.3479 6.12327C66.353 6.12327 70.3581 8.95736 70.3581 14.6256ZM66.925 14.6256C66.925 11.1113 64.2931 9.29745 61.6626 9.29745C59.0307 9.29745 56.3989 11.1113 56.3989 14.6256C56.3989 18.1398 59.0307 19.9537 61.6626 19.9537C64.4078 19.9537 66.925 18.1398 66.925 14.6256ZM78.4945 9.21501V18.1566C78.4945 19.0622 78.9518 19.8545 80.3212 19.8545C80.6639 19.8545 81.2346 19.7411 81.8053 19.5144V22.2312C81.2346 22.6834 80.0919 22.9101 79.1799 22.9101C76.6678 22.9101 74.8424 21.6657 74.8424 18.7234V9.21501H72.5571V6.38735H74.8411V2.19933H78.3786V6.38607H81.6893V9.2163H78.4932L78.4945 9.21501ZM84.6664 14.6256C84.6664 9.07073 88.9884 6.12327 93.1945 6.12327C97.5164 6.12327 101.838 9.07073 101.838 14.6256C101.838 20.1804 97.5164 23.1278 93.1945 23.1278C88.9884 23.1278 84.6664 20.1804 84.6664 14.6256ZM98.3126 14.6256C98.3126 11.2246 95.9242 9.29745 93.1957 9.29745C90.466 9.29745 88.0789 11.2246 88.0789 14.6256C88.0789 18.0265 90.5794 19.9537 93.1957 19.9537C95.8108 19.9537 98.3126 18.0265 98.3126 14.6256ZM115.267 6.23663V9.52418H114.23C111.004 9.52418 108.93 11.7927 108.93 15.1962V22.9088H105.36V6.46336H108.931V10.6604C109.507 8.1651 111.119 6.12327 114.23 6.12327C114.575 6.12327 114.92 6.12327 115.267 6.23663ZM154.01 13.2652V22.9088H150.47V13.8333C150.47 10.9966 148.872 9.40824 146.473 9.40824C144.074 9.40824 142.361 10.9966 142.361 13.8333V22.9088H138.821V6.57157H142.361V9.06815C143.275 7.59313 144.988 6.34484 147.614 6.34484C151.156 6.23148 154.01 8.38668 154.01 13.2652ZM164.055 16.2191L161.756 18.7144V22.9101H158.193V0.455078H161.756V14.1773L168.767 6.46594H173.019L166.238 13.8372L173.823 22.9101H169.801L164.055 16.2191ZM135.299 14.4954V6.02923H131.752V8.65334H131.638C131.066 7.28396 128.891 5.68785 125.918 5.68785C122.028 5.68785 117.908 8.53869 117.908 14.2417C117.908 19.9446 122.026 22.7955 125.917 22.9101C126.33 22.9101 126.728 22.8766 127.108 22.8161C127.825 22.3768 128.615 21.6747 129.56 20.6094C128.997 20.5243 128.542 20.4638 128.156 20.411C126.797 20.228 126.237 20.152 124.603 19.5698C123.77 19.2735 122.299 17.9569 121.859 16.7202C121.53 16.0181 121.34 15.1924 121.34 14.2417C121.34 10.7055 123.971 8.88136 126.603 8.88136C129.235 8.88136 131.867 10.7055 131.867 14.2404L131.866 14.3537C133.156 14.3975 134.364 14.4504 135.299 14.4954Z" fill="white"/>
<path d="M129.838 24.2163L129.145 23.5438L132.149 20.2898L128.913 17.2599L129.608 16.5874L133.537 20.2898L129.838 24.2163Z" fill="white" stroke="white" stroke-width="1.54072" stroke-miterlimit="10"/>
<path d="M7.27216 19.8169C6.46573 19.5103 5.63225 19.0504 5.03709 18.3676C4.14924 17.3238 3.66399 15.9969 3.66899 14.6266C3.66899 11.2257 6.06509 9.29723 8.80128 9.29723C10.1707 9.29723 11.5388 9.75069 12.4521 10.771C12.7226 11.0415 12.9416 11.321 13.1168 11.6057L13.7584 11.3635C14.6472 11.0286 15.5348 10.6924 16.4237 10.3497C14.8778 7.57101 11.8402 6.12305 8.80128 6.12305C4.46769 6.12305 0.132812 9.07051 0.132812 14.6253C0.132812 20.0913 4.32727 23.0336 8.59001 23.1276C9.33718 22.4964 10.1874 21.6397 10.8212 20.9995L11.2605 20.5563C9.79192 20.5563 8.32335 20.3103 7.27216 19.8169Z" fill="white"/>
<path d="M11.4049 24.653L10.7106 23.9805L13.716 20.7265L10.48 17.6966L11.173 17.0228L15.1021 20.7265L11.4049 24.653Z" fill="white" stroke="white" stroke-width="1.54072" stroke-miterlimit="10"/>
</g>
<defs>
<clipPath id="clip0_143_2973">
<rect width="173.91" height="28.341" fill="white" transform="translate(0.132812 0.455017)"/>
</clipPath>
</defs>
</svg>
