<svg class="button-sn" width="96" height="51" viewBox="0 0 96 51" fill="none" xmlns="http://www.w3.org/2000/svg">
<path d="M15.1851 4.40067C15.8893 2.08377 18.0259 0.5 20.4475 0.5H32.5H37H43.75C44.6528 0.5 45.5417 0.722218 46.3382 1.14704L47.4413 1.73531C48.3826 2.23738 49.4331 2.5 50.5 2.5H58.4067C59.5378 2.5 60.6495 2.20479 61.6316 1.64356L62.3646 1.22468C63.1957 0.749792 64.1362 0.5 65.0934 0.5H70.25H87.9812C91.653 0.5 94.2937 4.02928 93.2577 7.55191L81.7871 46.5519C81.0986 48.8926 78.9504 50.5 76.5106 50.5H8.59451C4.90201 50.5 2.25845 46.9336 3.33218 43.4007L15.1851 4.40067Z" fill="#1A1B23" stroke="#1A1B23"></path>
<rect width="24" height="24" transform="translate(35.5 13)" fill="#1A1B23"></rect>
<path d="M57.2032 16.7408C55.4186 15.9351 53.5048 15.3414 51.5039 15.0014C51.4674 14.9949 51.431 15.0113 51.4123 15.0441C51.1661 15.4748 50.8935 16.0367 50.7026 16.4784C48.5505 16.1614 46.4094 16.1614 44.3014 16.4784C44.1104 16.0269 43.8279 15.4748 43.5807 15.0441C43.5619 15.0124 43.5255 14.996 43.4891 15.0014C41.4892 15.3403 39.5755 15.934 37.7898 16.7408C37.7743 16.7473 37.761 16.7583 37.7523 16.7725C34.1223 22.1086 33.1279 27.3136 33.6157 32.4541C33.6179 32.4792 33.6323 32.5033 33.6521 32.5186C36.0471 34.2492 38.367 35.2998 40.6438 35.9962C40.6803 36.0071 40.7189 35.994 40.7421 35.9645C41.2806 35.2408 41.7607 34.4777 42.1724 33.6752C42.1967 33.6282 42.1735 33.5725 42.1238 33.5539C41.3623 33.2696 40.6372 32.9231 39.9397 32.5295C39.8845 32.4978 39.8801 32.4202 39.9309 32.383C40.0776 32.2748 40.2245 32.1621 40.3646 32.0484C40.39 32.0277 40.4253 32.0233 40.4551 32.0364C45.0375 34.095 49.9985 34.095 54.5268 32.0364C54.5566 32.0222 54.5919 32.0266 54.6184 32.0474C54.7586 32.1611 54.9054 32.2748 55.0533 32.383C55.104 32.4202 55.1007 32.4978 55.0455 32.5295C54.348 32.9307 53.6229 33.2696 52.8603 33.5528C52.8106 33.5714 52.7885 33.6282 52.8128 33.6752C53.2333 34.4766 53.7134 35.2396 54.242 35.9634C54.2641 35.994 54.3038 36.0071 54.3403 35.9962C56.6282 35.2998 58.9481 34.2492 61.343 32.5186C61.364 32.5033 61.3772 32.4803 61.3794 32.4552C61.9633 26.5122 60.4016 21.3499 57.2396 16.7736C57.2319 16.7583 57.2186 16.7473 57.2032 16.7408ZM42.8567 29.3241C41.4771 29.3241 40.3403 28.0778 40.3403 26.5472C40.3403 25.0167 41.455 23.7704 42.8567 23.7704C44.2694 23.7704 45.3951 25.0276 45.373 26.5472C45.373 28.0778 44.2583 29.3241 42.8567 29.3241ZM52.1605 29.3241C50.781 29.3241 49.6442 28.0778 49.6442 26.5472C49.6442 25.0167 50.7589 23.7704 52.1605 23.7704C53.5732 23.7704 54.699 25.0276 54.6769 26.5472C54.6769 28.0778 53.5732 29.3241 52.1605 29.3241Z" fill="white"></path>
</svg>