<svg width="506" height="124" viewBox="0 0 506 124" fill="none" xmlns="http://www.w3.org/2000/svg">
<g clip-path="url(#clip0_5874_147258)">
<rect width="506" height="124" rx="20" fill="black"/>
<g clip-path="url(#clip1_5874_147258)">
<rect x="153" y="123" width="200" height="1" fill="url(#paint0_linear_5874_147258)"/>
<g filter="url(#filter0_f_5874_147258)">
<rect x="186" y="116" width="136" height="8" rx="4" fill="url(#paint1_linear_5874_147258)" fill-opacity="0.6"/>
</g>
</g>
<path opacity="0.6" d="M201 -74H201.5C201.5 -74.2761 201.276 -74.5 201 -74.5V-74ZM201 188.949V189.449C201.276 189.449 201.5 189.225 201.5 188.949H201ZM179.583 -74C179.583 -74.2761 179.359 -74.5 179.083 -74.5C178.806 -74.5 178.583 -74.2761 178.583 -74H179.583ZM178.583 188.949C178.583 189.225 178.806 189.449 179.083 189.449C179.359 189.449 179.583 189.225 179.583 188.949H178.583ZM157.667 -74C157.667 -74.2761 157.443 -74.5 157.167 -74.5C156.891 -74.5 156.667 -74.2761 156.667 -74H157.667ZM156.667 188.949C156.667 189.225 156.891 189.449 157.167 189.449C157.443 189.449 157.667 189.225 157.667 188.949H156.667ZM135.75 -74C135.75 -74.2761 135.526 -74.5 135.25 -74.5C134.973 -74.5 134.75 -74.2761 134.75 -74H135.75ZM134.75 188.949C134.75 189.225 134.973 189.449 135.25 189.449C135.526 189.449 135.75 189.225 135.75 188.949H134.75ZM113.832 -74C113.832 -74.2761 113.608 -74.5 113.332 -74.5C113.056 -74.5 112.832 -74.2761 112.832 -74H113.832ZM112.832 188.949C112.832 189.225 113.056 189.449 113.332 189.449C113.608 189.449 113.832 189.225 113.832 188.949H112.832ZM91.9166 -74C91.9166 -74.2761 91.6927 -74.5 91.4166 -74.5C91.1404 -74.5 90.9166 -74.2761 90.9166 -74H91.9166ZM90.9166 188.949C90.9166 189.225 91.1404 189.449 91.4166 189.449C91.6927 189.449 91.9166 189.225 91.9166 188.949H90.9166ZM69.9993 -74C69.9993 -74.2761 69.7754 -74.5 69.4993 -74.5C69.2231 -74.5 68.9993 -74.2761 68.9993 -74H69.9993ZM68.9993 188.949C68.9993 189.225 69.2231 189.449 69.4993 189.449C69.7754 189.449 69.9993 189.225 69.9993 188.949H68.9993ZM48.0833 -74C48.0833 -74.2761 47.8595 -74.5 47.5833 -74.5C47.3072 -74.5 47.0833 -74.2761 47.0833 -74H48.0833ZM47.0833 188.949C47.0833 189.225 47.3072 189.449 47.5833 189.449C47.8595 189.449 48.0833 189.225 48.0833 188.949H47.0833ZM26.1662 -74C26.1662 -74.2761 25.9423 -74.5 25.6662 -74.5C25.3901 -74.5 25.1662 -74.2761 25.1662 -74H26.1662ZM25.1662 188.949C25.1662 189.225 25.3901 189.449 25.6662 189.449C25.9423 189.449 26.1662 189.225 26.1662 188.949H25.1662ZM4.25033 -74C4.25033 -74.2761 4.02647 -74.5 3.75033 -74.5C3.47419 -74.5 3.25033 -74.2761 3.25033 -74H4.25033ZM3.25033 188.949C3.25033 189.225 3.47419 189.449 3.75033 189.449C4.02647 189.449 4.25033 189.225 4.25033 188.949H3.25033ZM-17.667 -74C-17.667 -74.2761 -17.8908 -74.5 -18.167 -74.5C-18.4431 -74.5 -18.667 -74.2761 -18.667 -74H-17.667ZM-18.667 188.949C-18.667 189.225 -18.4431 189.449 -18.167 189.449C-17.8908 189.449 -17.667 189.225 -17.667 188.949H-18.667ZM-39.5829 -74C-39.5829 -74.2761 -39.8068 -74.5 -40.0829 -74.5C-40.359 -74.5 -40.5829 -74.2761 -40.5829 -74H-39.5829ZM-40.5829 188.949C-40.5829 189.225 -40.359 189.449 -40.0829 189.449C-39.8068 189.449 -39.5829 189.225 -39.5829 188.949H-40.5829ZM-62 -74V-74.5C-62.2761 -74.5 -62.5 -74.2761 -62.5 -74H-62ZM-62 188.949H-62.5C-62.5 189.225 -62.2761 189.449 -62 189.449V188.949ZM-62 -52.5873C-62.2761 -52.5873 -62.5 -52.3634 -62.5 -52.0873C-62.5 -51.8111 -62.2761 -51.5873 -62 -51.5873V-52.5873ZM201 -51.5873C201.276 -51.5873 201.5 -51.8111 201.5 -52.0873C201.5 -52.3634 201.276 -52.5873 201 -52.5873V-51.5873ZM-62 -30.6754C-62.2761 -30.6754 -62.5 -30.4516 -62.5 -30.1754C-62.5 -29.8993 -62.2761 -29.6754 -62 -29.6754V-30.6754ZM201 -29.6754C201.276 -29.6754 201.5 -29.8993 201.5 -30.1754C201.5 -30.4516 201.276 -30.6754 201 -30.6754V-29.6754ZM-62 -8.76235C-62.2761 -8.76235 -62.5 -8.53849 -62.5 -8.26235C-62.5 -7.98621 -62.2761 -7.76235 -62 -7.76235V-8.76235ZM201 -7.76235C201.276 -7.76235 201.5 -7.98621 201.5 -8.26235C201.5 -8.53849 201.276 -8.76235 201 -8.76235V-7.76235ZM-62 13.1491C-62.2761 13.1491 -62.5 13.373 -62.5 13.6491C-62.5 13.9253 -62.2761 14.1491 -62 14.1491V13.1491ZM201 14.1491C201.276 14.1491 201.5 13.9253 201.5 13.6491C201.5 13.373 201.276 13.1491 201 13.1491V14.1491ZM-62 35.0622C-62.2761 35.0622 -62.5 35.2861 -62.5 35.5622C-62.5 35.8384 -62.2761 36.0622 -62 36.0622V35.0622ZM201 36.0622C201.276 36.0622 201.5 35.8384 201.5 35.5622C201.5 35.2861 201.276 35.0622 201 35.0622V36.0622ZM-62 56.9737C-62.2761 56.9737 -62.5 57.1976 -62.5 57.4737C-62.5 57.7498 -62.2761 57.9737 -62 57.9737V56.9737ZM201 57.9737C201.276 57.9737 201.5 57.7498 201.5 57.4737C201.5 57.1976 201.276 56.9737 201 56.9737V57.9737ZM-62 78.8868C-62.2761 78.8868 -62.5 79.1106 -62.5 79.3868C-62.5 79.6629 -62.2761 79.8868 -62 79.8868V78.8868ZM201 79.8868C201.276 79.8868 201.5 79.6629 201.5 79.3868C201.5 79.1106 201.276 78.8868 201 78.8868V79.8868ZM-62 100.799C-62.2761 100.799 -62.5 101.023 -62.5 101.299C-62.5 101.575 -62.2761 101.799 -62 101.799V100.799ZM201 101.799C201.276 101.799 201.5 101.575 201.5 101.299C201.5 101.023 201.276 100.799 201 100.799V101.799ZM-62 122.711C-62.2761 122.711 -62.5 122.935 -62.5 123.211C-62.5 123.488 -62.2761 123.711 -62 123.711V122.711ZM201 123.711C201.276 123.711 201.5 123.488 201.5 123.211C201.5 122.935 201.276 122.711 201 122.711V123.711ZM-62 144.624C-62.2761 144.624 -62.5 144.848 -62.5 145.124C-62.5 145.401 -62.2761 145.624 -62 145.624V144.624ZM201 145.624C201.276 145.624 201.5 145.401 201.5 145.124C201.5 144.848 201.276 144.624 201 144.624V145.624ZM-62 166.536C-62.2761 166.536 -62.5 166.76 -62.5 167.036C-62.5 167.312 -62.2761 167.536 -62 167.536V166.536ZM201 167.536C201.276 167.536 201.5 167.312 201.5 167.036C201.5 166.76 201.276 166.536 201 166.536V167.536ZM-62 188.745V188.245H-62.5V188.745H-62ZM201 188.745H201.5V188.245H201V188.745ZM201 189V189.5H201.5V189H201ZM-62 189H-62.5V189.5H-62V189ZM200.5 -74V188.949H201.5V-74H200.5ZM178.583 -74V188.949H179.583V-74H178.583ZM156.667 -74V188.949H157.667V-74H156.667ZM134.75 -74V188.949H135.75V-74H134.75ZM112.832 -74V188.949H113.832V-74H112.832ZM90.9166 -74V188.949H91.9166V-74H90.9166ZM68.9993 -74V188.949H69.9993V-74H68.9993ZM47.0833 -74V188.949H48.0833V-74H47.0833ZM25.1662 -74V188.949H26.1662V-74H25.1662ZM3.25033 -74V188.949H4.25033V-74H3.25033ZM-18.667 -74V188.949H-17.667V-74H-18.667ZM-40.5829 -74V188.949H-39.5829V-74H-40.5829ZM-62.5 -74V188.949H-61.5V-74H-62.5ZM-62 -73.5H201V-74.5H-62V-73.5ZM-62 -51.5873H201V-52.5873H-62V-51.5873ZM-62 -29.6754H201V-30.6754H-62V-29.6754ZM-62 -7.76235H201V-8.76235H-62V-7.76235ZM-62 14.1491H201V13.1491H-62V14.1491ZM-62 36.0622H201V35.0622H-62V36.0622ZM-62 57.9737H201V56.9737H-62V57.9737ZM-62 79.8868H201V78.8868H-62V79.8868ZM-62 101.799H201V100.799H-62V101.799ZM-62 123.711H201V122.711H-62V123.711ZM-62 145.624H201V144.624H-62V145.624ZM-62 167.536H201V166.536H-62V167.536ZM-62 189.245H201V188.245H-62V189.245ZM200.5 188.745V189H201.5V188.745H200.5ZM201 188.5H-62V189.5H201V188.5ZM-61.5 189V188.745H-62.5V189H-61.5ZM-62 189.449H201V188.449H-62V189.449Z" fill="url(#paint2_radial_5874_147258)"/>
<path opacity="0.6" d="M596 -74H596.5C596.5 -74.2761 596.276 -74.5 596 -74.5V-74ZM596 188.949V189.449C596.276 189.449 596.5 189.225 596.5 188.949H596ZM574.583 -74C574.583 -74.2761 574.359 -74.5 574.083 -74.5C573.806 -74.5 573.583 -74.2761 573.583 -74H574.583ZM573.583 188.949C573.583 189.225 573.806 189.449 574.083 189.449C574.359 189.449 574.583 189.225 574.583 188.949H573.583ZM552.667 -74C552.667 -74.2761 552.443 -74.5 552.167 -74.5C551.891 -74.5 551.667 -74.2761 551.667 -74H552.667ZM551.667 188.949C551.667 189.225 551.891 189.449 552.167 189.449C552.443 189.449 552.667 189.225 552.667 188.949H551.667ZM530.75 -74C530.75 -74.2761 530.526 -74.5 530.25 -74.5C529.973 -74.5 529.75 -74.2761 529.75 -74H530.75ZM529.75 188.949C529.75 189.225 529.973 189.449 530.25 189.449C530.526 189.449 530.75 189.225 530.75 188.949H529.75ZM508.832 -74C508.832 -74.2761 508.608 -74.5 508.332 -74.5C508.056 -74.5 507.832 -74.2761 507.832 -74H508.832ZM507.832 188.949C507.832 189.225 508.056 189.449 508.332 189.449C508.608 189.449 508.832 189.225 508.832 188.949H507.832ZM486.917 -74C486.917 -74.2761 486.693 -74.5 486.417 -74.5C486.14 -74.5 485.917 -74.2761 485.917 -74H486.917ZM485.917 188.949C485.917 189.225 486.14 189.449 486.417 189.449C486.693 189.449 486.917 189.225 486.917 188.949H485.917ZM464.999 -74C464.999 -74.2761 464.775 -74.5 464.499 -74.5C464.223 -74.5 463.999 -74.2761 463.999 -74H464.999ZM463.999 188.949C463.999 189.225 464.223 189.449 464.499 189.449C464.775 189.449 464.999 189.225 464.999 188.949H463.999ZM443.083 -74C443.083 -74.2761 442.859 -74.5 442.583 -74.5C442.307 -74.5 442.083 -74.2761 442.083 -74H443.083ZM442.083 188.949C442.083 189.225 442.307 189.449 442.583 189.449C442.859 189.449 443.083 189.225 443.083 188.949H442.083ZM421.166 -74C421.166 -74.2761 420.942 -74.5 420.666 -74.5C420.39 -74.5 420.166 -74.2761 420.166 -74H421.166ZM420.166 188.949C420.166 189.225 420.39 189.449 420.666 189.449C420.942 189.449 421.166 189.225 421.166 188.949H420.166ZM399.25 -74C399.25 -74.2761 399.026 -74.5 398.75 -74.5C398.474 -74.5 398.25 -74.2761 398.25 -74H399.25ZM398.25 188.949C398.25 189.225 398.474 189.449 398.75 189.449C399.026 189.449 399.25 189.225 399.25 188.949H398.25ZM377.333 -74C377.333 -74.2761 377.109 -74.5 376.833 -74.5C376.557 -74.5 376.333 -74.2761 376.333 -74H377.333ZM376.333 188.949C376.333 189.225 376.557 189.449 376.833 189.449C377.109 189.449 377.333 189.225 377.333 188.949H376.333ZM355.417 -74C355.417 -74.2761 355.193 -74.5 354.917 -74.5C354.641 -74.5 354.417 -74.2761 354.417 -74H355.417ZM354.417 188.949C354.417 189.225 354.641 189.449 354.917 189.449C355.193 189.449 355.417 189.225 355.417 188.949H354.417ZM333 -74V-74.5C332.724 -74.5 332.5 -74.2761 332.5 -74H333ZM333 188.949H332.5C332.5 189.225 332.724 189.449 333 189.449V188.949ZM333 -52.5873C332.724 -52.5873 332.5 -52.3634 332.5 -52.0873C332.5 -51.8111 332.724 -51.5873 333 -51.5873V-52.5873ZM596 -51.5873C596.276 -51.5873 596.5 -51.8111 596.5 -52.0873C596.5 -52.3634 596.276 -52.5873 596 -52.5873V-51.5873ZM333 -30.6754C332.724 -30.6754 332.5 -30.4516 332.5 -30.1754C332.5 -29.8993 332.724 -29.6754 333 -29.6754V-30.6754ZM596 -29.6754C596.276 -29.6754 596.5 -29.8993 596.5 -30.1754C596.5 -30.4516 596.276 -30.6754 596 -30.6754V-29.6754ZM333 -8.76235C332.724 -8.76235 332.5 -8.53849 332.5 -8.26235C332.5 -7.98621 332.724 -7.76235 333 -7.76235V-8.76235ZM596 -7.76235C596.276 -7.76235 596.5 -7.98621 596.5 -8.26235C596.5 -8.53849 596.276 -8.76235 596 -8.76235V-7.76235ZM333 13.1491C332.724 13.1491 332.5 13.373 332.5 13.6491C332.5 13.9253 332.724 14.1491 333 14.1491V13.1491ZM596 14.1491C596.276 14.1491 596.5 13.9253 596.5 13.6491C596.5 13.373 596.276 13.1491 596 13.1491V14.1491ZM333 35.0622C332.724 35.0622 332.5 35.2861 332.5 35.5622C332.5 35.8384 332.724 36.0622 333 36.0622V35.0622ZM596 36.0622C596.276 36.0622 596.5 35.8384 596.5 35.5622C596.5 35.2861 596.276 35.0622 596 35.0622V36.0622ZM333 56.9737C332.724 56.9737 332.5 57.1976 332.5 57.4737C332.5 57.7498 332.724 57.9737 333 57.9737V56.9737ZM596 57.9737C596.276 57.9737 596.5 57.7498 596.5 57.4737C596.5 57.1976 596.276 56.9737 596 56.9737V57.9737ZM333 78.8868C332.724 78.8868 332.5 79.1106 332.5 79.3868C332.5 79.6629 332.724 79.8868 333 79.8868V78.8868ZM596 79.8868C596.276 79.8868 596.5 79.6629 596.5 79.3868C596.5 79.1106 596.276 78.8868 596 78.8868V79.8868ZM333 100.799C332.724 100.799 332.5 101.023 332.5 101.299C332.5 101.575 332.724 101.799 333 101.799V100.799ZM596 101.799C596.276 101.799 596.5 101.575 596.5 101.299C596.5 101.023 596.276 100.799 596 100.799V101.799ZM333 122.711C332.724 122.711 332.5 122.935 332.5 123.211C332.5 123.488 332.724 123.711 333 123.711V122.711ZM596 123.711C596.276 123.711 596.5 123.488 596.5 123.211C596.5 122.935 596.276 122.711 596 122.711V123.711ZM333 144.624C332.724 144.624 332.5 144.848 332.5 145.124C332.5 145.401 332.724 145.624 333 145.624V144.624ZM596 145.624C596.276 145.624 596.5 145.401 596.5 145.124C596.5 144.848 596.276 144.624 596 144.624V145.624ZM333 166.536C332.724 166.536 332.5 166.76 332.5 167.036C332.5 167.312 332.724 167.536 333 167.536V166.536ZM596 167.536C596.276 167.536 596.5 167.312 596.5 167.036C596.5 166.76 596.276 166.536 596 166.536V167.536ZM333 188.745V188.245H332.5V188.745H333ZM596 188.745H596.5V188.245H596V188.745ZM596 189V189.5H596.5V189H596ZM333 189H332.5V189.5H333V189ZM595.5 -74V188.949H596.5V-74H595.5ZM573.583 -74V188.949H574.583V-74H573.583ZM551.667 -74V188.949H552.667V-74H551.667ZM529.75 -74V188.949H530.75V-74H529.75ZM507.832 -74V188.949H508.832V-74H507.832ZM485.917 -74V188.949H486.917V-74H485.917ZM463.999 -74V188.949H464.999V-74H463.999ZM442.083 -74V188.949H443.083V-74H442.083ZM420.166 -74V188.949H421.166V-74H420.166ZM398.25 -74V188.949H399.25V-74H398.25ZM376.333 -74V188.949H377.333V-74H376.333ZM354.417 -74V188.949H355.417V-74H354.417ZM332.5 -74V188.949H333.5V-74H332.5ZM333 -73.5H596V-74.5H333V-73.5ZM333 -51.5873H596V-52.5873H333V-51.5873ZM333 -29.6754H596V-30.6754H333V-29.6754ZM333 -7.76235H596V-8.76235H333V-7.76235ZM333 14.1491H596V13.1491H333V14.1491ZM333 36.0622H596V35.0622H333V36.0622ZM333 57.9737H596V56.9737H333V57.9737ZM333 79.8868H596V78.8868H333V79.8868ZM333 101.799H596V100.799H333V101.799ZM333 123.711H596V122.711H333V123.711ZM333 145.624H596V144.624H333V145.624ZM333 167.536H596V166.536H333V167.536ZM333 189.245H596V188.245H333V189.245ZM595.5 188.745V189H596.5V188.745H595.5ZM596 188.5H333V189.5H596V188.5ZM333.5 189V188.745H332.5V189H333.5ZM333 189.449H596V188.449H333V189.449Z" fill="url(#paint3_radial_5874_147258)"/>
</g>
<defs>
<filter id="filter0_f_5874_147258" x="158" y="88" width="192" height="64" filterUnits="userSpaceOnUse" color-interpolation-filters="sRGB">
<feFlood flood-opacity="0" result="BackgroundImageFix"/>
<feBlend mode="normal" in="SourceGraphic" in2="BackgroundImageFix" result="shape"/>
<feGaussianBlur stdDeviation="14" result="effect1_foregroundBlur_5874_147258"/>
</filter>
<linearGradient id="paint0_linear_5874_147258" x1="169" y1="124" x2="333" y2="123" gradientUnits="userSpaceOnUse">
<stop stop-color="#FFFC54" stop-opacity="0"/>
<stop offset="0.540075" stop-color="#FFFC54"/>
<stop offset="1" stop-color="#999732" stop-opacity="0"/>
</linearGradient>
<linearGradient id="paint1_linear_5874_147258" x1="186" y1="120" x2="322" y2="120" gradientUnits="userSpaceOnUse">
<stop stop-color="#FFFC54" stop-opacity="0"/>
<stop offset="0.49852" stop-color="#FFFC54"/>
<stop offset="1" stop-color="#FFFC54" stop-opacity="0"/>
</linearGradient>
<radialGradient id="paint2_radial_5874_147258" cx="0" cy="0" r="1" gradientUnits="userSpaceOnUse" gradientTransform="translate(69.5 57.5) rotate(89.8004) scale(72.162 106.23)">
<stop stop-color="white" stop-opacity="0.21"/>
<stop offset="1" stop-color="white" stop-opacity="0"/>
<stop offset="1" stop-color="white" stop-opacity="0.19"/>
</radialGradient>
<radialGradient id="paint3_radial_5874_147258" cx="0" cy="0" r="1" gradientUnits="userSpaceOnUse" gradientTransform="translate(464.5 57.5) rotate(89.8004) scale(72.162 106.23)">
<stop stop-color="white" stop-opacity="0.21"/>
<stop offset="1" stop-color="white" stop-opacity="0"/>
<stop offset="1" stop-color="white" stop-opacity="0.19"/>
</radialGradient>
<clipPath id="clip0_5874_147258">
<rect width="506" height="124" rx="20" fill="white"/>
</clipPath>
<clipPath id="clip1_5874_147258">
<rect width="200" height="35" fill="white" transform="translate(153 89)"/>
</clipPath>
</defs>
</svg>
