<svg width="156" height="66" viewBox="0 0 156 66" fill="none" xmlns="http://www.w3.org/2000/svg">
<rect x="0.264" y="0.264" width="155.472" height="65.472" rx="15.736" fill="url(#paint0_linear_5298_80171)"/>
<rect x="0.264" y="0.264" width="155.472" height="65.472" rx="15.736" stroke="url(#paint1_linear_5298_80171)" stroke-width="0.528"/>
<path d="M57.68 26H57.37C57.2967 26 57.2733 25.96 57.3 25.88L59.29 19.69C59.31 19.61 59.3567 19.57 59.43 19.57H59.9C59.9667 19.57 60.0133 19.61 60.04 19.69L62.03 25.88C62.05 25.96 62.0267 26 61.96 26H61.64C61.5733 26 61.53 25.96 61.51 25.88L60.97 24.28H58.35L57.81 25.88C57.7833 25.96 57.74 26 57.68 26ZM59.64 20.12L58.49 23.83H60.84L59.68 20.12H59.64ZM68.662 19.57H68.942C69.0154 19.57 69.052 19.6067 69.052 19.68V24.58C69.052 25.02 68.9254 25.3667 68.672 25.62C68.4254 25.8733 68.0854 26 67.652 26H66.532C66.0987 26 65.7554 25.8733 65.502 25.62C65.2554 25.3667 65.132 25.02 65.132 24.58V19.69C65.132 19.61 65.1654 19.57 65.232 19.57H65.522C65.5954 19.57 65.632 19.61 65.632 19.69V24.56C65.632 24.8733 65.712 25.1167 65.872 25.29C66.032 25.4633 66.2654 25.55 66.572 25.55H67.602C67.9087 25.55 68.142 25.4667 68.302 25.3C68.4687 25.1267 68.552 24.88 68.552 24.56V19.69C68.552 19.61 68.5887 19.57 68.662 19.57ZM73.2996 25.55H75.2196C75.5263 25.55 75.7596 25.4667 75.9196 25.3C76.0863 25.1267 76.1696 24.88 76.1696 24.56V21.01C76.1696 20.69 76.0863 20.4467 75.9196 20.28C75.7596 20.1067 75.5263 20.02 75.2196 20.02H73.2996C73.2329 20.02 73.1996 20.05 73.1996 20.11V25.46C73.1996 25.52 73.2329 25.55 73.2996 25.55ZM72.6996 25.88V19.69C72.6996 19.61 72.7329 19.57 72.7996 19.57H75.2696C75.7029 19.57 76.0429 19.6967 76.2896 19.95C76.5429 20.2033 76.6696 20.55 76.6696 20.99V24.58C76.6696 25.02 76.5429 25.3667 76.2896 25.62C76.0429 25.8733 75.7029 26 75.2696 26H72.7996C72.7329 26 72.6996 25.96 72.6996 25.88ZM80.816 19.69V25.88C80.816 25.96 80.7793 26 80.706 26H80.416C80.3493 26 80.316 25.96 80.316 25.88V19.69C80.316 19.61 80.3493 19.57 80.416 19.57H80.706C80.7793 19.57 80.816 19.61 80.816 19.69ZM85.9707 26H85.6807C85.6074 26 85.5707 25.96 85.5707 25.88V20.11C85.5707 20.05 85.5374 20.02 85.4707 20.02H84.0207C83.9407 20.02 83.9007 19.9833 83.9007 19.91V19.68C83.9007 19.6067 83.9407 19.57 84.0207 19.57H87.6207C87.7007 19.57 87.7407 19.6067 87.7407 19.68V19.91C87.7407 19.9833 87.7007 20.02 87.6207 20.02H86.1707C86.104 20.02 86.0707 20.05 86.0707 20.11V25.88C86.0707 25.96 86.0374 26 85.9707 26ZM93.9599 26H90.8699C90.8033 26 90.7699 25.96 90.7699 25.88V19.69C90.7699 19.61 90.8033 19.57 90.8699 19.57H93.9599C94.0399 19.57 94.0799 19.6067 94.0799 19.68V19.91C94.0799 19.9833 94.0399 20.02 93.9599 20.02H91.3699C91.3033 20.02 91.2699 20.05 91.2699 20.11V22.41C91.2699 22.47 91.3033 22.5 91.3699 22.5H93.6799C93.7533 22.5 93.7899 22.5367 93.7899 22.61V22.84C93.7899 22.9133 93.7533 22.95 93.6799 22.95H91.3699C91.3033 22.95 91.2699 22.98 91.2699 23.04V25.46C91.2699 25.52 91.3033 25.55 91.3699 25.55H93.9599C94.0399 25.55 94.0799 25.5867 94.0799 25.66V25.89C94.0799 25.9633 94.0399 26 93.9599 26ZM98.1844 25.55H100.104C100.411 25.55 100.644 25.4667 100.804 25.3C100.971 25.1267 101.054 24.88 101.054 24.56V21.01C101.054 20.69 100.971 20.4467 100.804 20.28C100.644 20.1067 100.411 20.02 100.104 20.02H98.1844C98.1177 20.02 98.0844 20.05 98.0844 20.11V25.46C98.0844 25.52 98.1177 25.55 98.1844 25.55ZM97.5844 25.88V19.69C97.5844 19.61 97.6177 19.57 97.6844 19.57H100.154C100.588 19.57 100.928 19.6967 101.174 19.95C101.428 20.2033 101.554 20.55 101.554 20.99V24.58C101.554 25.02 101.428 25.3667 101.174 25.62C100.928 25.8733 100.588 26 100.154 26H97.6844C97.6177 26 97.5844 25.96 97.5844 25.88ZM110.417 25.56H112.277C112.91 25.56 113.227 25.24 113.227 24.6V23.91C113.227 23.2767 112.88 22.96 112.187 22.96H110.417C110.35 22.96 110.317 22.9867 110.317 23.04V25.47C110.317 25.53 110.35 25.56 110.417 25.56ZM110.417 22.52H112.177C112.49 22.52 112.73 22.4367 112.897 22.27C113.07 22.1033 113.157 21.8667 113.157 21.56V20.97C113.157 20.33 112.84 20.01 112.207 20.01H110.417C110.35 20.01 110.317 20.04 110.317 20.1V22.43C110.317 22.49 110.35 22.52 110.417 22.52ZM109.817 25.88V19.69C109.817 19.61 109.85 19.57 109.917 19.57H112.247C112.68 19.57 113.023 19.6933 113.277 19.94C113.53 20.1867 113.657 20.5267 113.657 20.96V21.57C113.657 22.1767 113.37 22.5667 112.797 22.74C113.043 22.7533 113.26 22.8667 113.447 23.08C113.633 23.2933 113.727 23.57 113.727 23.91V24.61C113.727 25.0433 113.6 25.3833 113.347 25.63C113.093 25.8767 112.75 26 112.317 26H109.917C109.85 26 109.817 25.96 109.817 25.88ZM119.036 26H118.746C118.672 26 118.636 25.96 118.636 25.88V23.57L116.696 19.69C116.656 19.61 116.679 19.57 116.766 19.57H117.126C117.186 19.57 117.232 19.61 117.266 19.69L118.866 22.96H118.916L120.506 19.69C120.539 19.61 120.586 19.57 120.646 19.57H121.016C121.089 19.57 121.112 19.61 121.086 19.69L119.136 23.57V25.88C119.136 25.96 119.102 26 119.036 26Z" fill="white"/>
<path d="M48.1818 18V26.1818H45.4545V18H42.7273V26.1818H40V18H37.2727V26.1818H23.6364V18H20.9091V26.1818V28.9091H48.1818V31.6364H45.4545H42.7273H18.1818V18H15.4545V31.6364H12.7273V18H10V31.6364V34.3636V48H12.7273V39.8182H15.4545V48H18.1818V39.8182H20.9091V48H23.6364V39.8182H37.2727V48H40V39.8182V37.0909H18.1818H15.4545H12.7273V34.3636H15.4545H18.1818H42.7273V48H45.4545V34.3636H48.1818V48H50.9091V34.3636V31.6364V28.9091V26.1818V18H48.1818Z" fill="white"/>
<path d="M65.7268 41V43.9089H59.1821V41H57V49H59.1821V46.0911H65.7268V49H67.9089V41H65.7268Z" fill="white"/>
<path d="M107.182 46.0911H105V49H107.182V46.0911Z" fill="white"/>
<path d="M107.182 41H105V43.9089H98.4536V41H96.2715V49H98.4536V46.0911H105L107.182 43.9089V41Z" fill="white"/>
<path d="M79.5451 41H70.0898V49H72.272V46.0911H78.8183V49H81.0005V41H79.5451ZM72.272 43.9089V43.1821H78.8183V43.9089H72.272Z" fill="white"/>
<path d="M94.0942 43.1821V41H85.3657H84.6389H83.1836V49H84.6389H85.3657H94.0942V46.8179H85.3657V43.1821H94.0942Z" fill="white"/>
<path d="M120.274 43.1821V41H111.546H110.819H109.365V49H110.819H111.546H120.274V46.8179H111.546V46.0911H120.274V43.9089H111.546V43.1821H120.274Z" fill="white"/>
<path d="M131.184 41V46.0911L124.639 41H122.457V49H124.639V43.9089L131.184 49H133.366V41H131.184Z" fill="white"/>
<defs>
<linearGradient id="paint0_linear_5298_80171" x1="78" y1="0" x2="78" y2="66" gradientUnits="userSpaceOnUse">
<stop stop-color="#1A1B23"/>
<stop offset="1"/>
</linearGradient>
<linearGradient id="paint1_linear_5298_80171" x1="0" y1="0" x2="47.3676" y2="111.96" gradientUnits="userSpaceOnUse">
<stop stop-color="white"/>
<stop offset="0.44" stop-color="white" stop-opacity="0.1"/>
<stop offset="1" stop-color="white"/>
</linearGradient>
</defs>
</svg>
