<svg width="499" height="105" viewBox="0 0 499 105" fill="none" xmlns="http://www.w3.org/2000/svg">
<path fill-rule="evenodd" clip-rule="evenodd" d="M252.36 105.001L258.697 105.001L278.75 105.001L294.19 98.9181C294.89 98.6422 295.636 98.5005 296.389 98.5005L329.322 98.5005C329.937 98.5005 330.548 98.5952 331.135 98.7811L349.865 104.72C350.452 104.906 351.063 105.001 351.678 105.001L378.399 105.001L498.25 105.001L498.25 0.000434875L6.0091 0.00191009C1.25053 0.00191731 -1.61437 5.27632 0.976022 9.26807L55.109 92.6862C55.6689 93.5489 56.441 94.2532 57.3514 94.7315L67.3826 100.002L67.9167 100.002L68.3846 100.528L72.7626 102.829L70.25 100.002L73.9167 100.002L78.3611 105.002L78.3792 105.002L80.6944 105.002L76.25 100.002L79.9167 100.002L84.3611 105.002L86.6944 105.002L82.25 100.002L85.9167 100.002L90.3611 105.002L92.6944 105.002L88.25 100.002L91.9167 100.002L96.3611 105.002L98.6944 105.002L94.25 100.002L97.9167 100.002L102.361 105.002L104.694 105.002L100.25 100.002L103.917 100.002L108.361 105.002L110.694 105.002L106.25 100.002L109.917 100.002L114.361 105.002L116.694 105.002L112.25 100.002L115.917 100.002L120.361 105.002L122.694 105.002L118.25 100.002L121.917 100.002L126.361 105.002L126.75 105.002L128.694 105.002L124.25 100.002L127.917 100.002L132.361 105.002L134.694 105.001L130.25 100.002L133.917 100.002L138.36 105.001L140.694 105.001L136.25 100.002L139.917 100.002L144.36 105.001L146.693 105.001L142.25 100.002L145.917 100.002L150.36 105L152.693 105L148.25 100.002L151.917 100.002L156.36 105L158.693 105L154.25 100.002L157.917 100.002L162.36 105L164.693 105L160.25 100.002L163.917 100.002L168.36 105L170.693 105L166.25 100.002L169.917 100.002L174.36 105L176.693 105L172.25 100.002L175.917 100.002L180.36 105L182.693 105L178.25 100.002L181.917 100.002L186.36 105L188.693 105L184.25 100.002L187.917 100.002L192.36 105L194.693 105L190.25 100.002L193.917 100.002L198.36 105L200.693 105L196.25 100.002L199.917 100.002L204.36 105L206.693 105L202.25 100.002L205.917 100.002L210.36 105L212.693 105L208.25 100.002L211.917 100.002L216.36 105L218.693 105L214.25 100.002L217.917 100.002L222.36 105L224.693 105L220.25 100.002L223.917 100.002L228.36 105L230.693 105L226.25 100.002L229.917 100.002L234.36 105.001L236.693 105.001L232.25 100.002L235.917 100.002L240.36 105.001L242.693 105.001L238.25 100.002L241.917 100.002L246.36 105.001L248.693 105.001L244.25 100.002L247.917 100.002L252.36 105.001ZM10.75 6.0019C9.3693 6.0019 8.25001 7.12118 8.25001 8.5019C8.25001 9.88261 9.3693 11.0019 10.75 11.0019C12.1307 11.0019 13.25 9.88261 13.25 8.5019C13.25 7.12118 12.1307 6.0019 10.75 6.0019Z" fill="#1A1B23"/>
</svg>
