<svg width="109" height="38" viewBox="0 0 109 38" fill="none" xmlns="http://www.w3.org/2000/svg">
<g opacity="0.6">
<path fill-rule="evenodd" clip-rule="evenodd" d="M9.18454 16.7216L18.6392 26.1493L24.6092 20.1794C25.6627 19.1258 27.3645 19.1258 28.4181 20.1794C29.4716 21.2329 29.4716 22.9347 28.4181 23.9883L20.5572 31.8492C19.5036 32.9026 17.7747 32.9026 16.7483 31.8492L5.40267 20.5036V27.2569C5.40267 28.7426 4.18707 29.9582 2.70134 29.9582C1.2156 29.9582 0 28.7426 0 27.2569V6.13241C0 4.64668 1.2156 3.43107 2.70134 3.43107C4.18707 3.43107 5.40267 4.64668 5.40267 6.13241V12.8857L16.7483 1.54014C17.8018 0.486618 19.5036 0.486618 20.5572 1.54014L28.4181 9.40103C29.4716 10.4546 29.4716 12.1564 28.4181 13.2099C27.3645 14.2635 25.6627 14.2635 24.6092 13.2099L18.6122 7.26697L9.18454 16.7216ZM18.6386 14.0204C17.153 14.0204 15.9373 15.2359 15.9373 16.7217C15.9373 18.2074 17.153 19.4231 18.6386 19.4231C20.1244 19.4231 21.34 18.2074 21.34 16.7217C21.34 15.2359 20.1244 14.0204 18.6386 14.0204Z" fill="white"/>
<path fill-rule="evenodd" clip-rule="evenodd" d="M87.019 10.0239C87.019 9.45658 87.019 8.91631 86.9919 8.43007C86.965 7.94383 86.938 7.48461 86.8569 7.05239C86.7759 6.62018 86.6408 6.21498 86.4787 5.83679C86.2896 5.4586 86.0465 5.10742 85.7224 4.78327C85.2632 4.32404 84.7499 3.97286 84.1556 3.72975C83.5612 3.48663 82.913 3.35156 82.1565 3.35156C81.4002 3.35156 80.7518 3.48663 80.1576 3.72975C79.5633 3.97286 79.05 4.32404 78.5908 4.78327C78.2666 5.10742 77.9965 5.4586 77.8344 5.83679C77.6453 6.21498 77.5373 6.62018 77.4563 7.05239C77.3752 7.48461 77.3482 7.94383 77.3212 8.43007C77.2942 8.91631 77.2942 9.45658 77.2942 10.0239C77.2942 10.5911 77.2942 11.1044 77.3212 11.6176C77.3482 12.1039 77.3752 12.5631 77.4563 12.9953C77.5373 13.4275 77.6453 13.8327 77.8344 14.2109C78.0236 14.5891 78.2666 14.9403 78.5908 15.2645C79.05 15.7237 79.5633 16.0748 80.1576 16.318C80.7518 16.5611 81.4002 16.6961 82.1565 16.6961C82.913 16.6961 83.5612 16.5611 84.1556 16.318C84.7228 16.0748 85.2632 15.7237 85.7224 15.2645C86.0465 14.9403 86.3166 14.5891 86.4787 14.2109C86.6678 13.8327 86.7759 13.4275 86.8569 12.9953C86.938 12.5631 86.9919 12.1039 86.9919 11.6176C87.019 11.1044 87.019 10.5911 87.019 10.0239ZM84.4521 10.0239C84.4521 10.6452 84.4521 11.1855 84.4251 11.5907C84.3981 11.9959 84.3711 12.347 84.3171 12.6172C84.263 12.8873 84.209 13.1035 84.1279 13.2655C84.0469 13.4276 83.9388 13.5897 83.8308 13.7248C83.6417 13.9409 83.3985 14.103 83.1285 14.238C82.8583 14.373 82.5342 14.427 82.183 14.427C81.8319 14.427 81.5077 14.373 81.2375 14.238C80.9404 14.103 80.7243 13.9409 80.5351 13.7248C80.4001 13.5897 80.3191 13.4276 80.238 13.2655C80.157 13.1035 80.103 12.8873 80.049 12.6172C79.9949 12.347 79.9679 12.0229 79.9409 11.5907C79.9138 11.1855 79.9138 10.6452 79.9138 10.0239C79.9138 9.40261 79.9138 8.86235 79.9409 8.45715C79.9679 8.05194 79.9949 7.70077 80.049 7.43064C80.103 7.1605 80.157 6.94439 80.238 6.78231C80.3191 6.62024 80.4272 6.45816 80.5351 6.32309C80.7243 6.10698 80.9674 5.9449 81.2375 5.80983C81.5077 5.67476 81.8319 5.62074 82.183 5.62074C82.5342 5.62074 82.8583 5.67476 83.1285 5.80983C83.3985 5.9449 83.6417 6.10698 83.8308 6.32309C83.9659 6.45816 84.0469 6.62024 84.1279 6.78231C84.209 6.94439 84.263 7.1605 84.3171 7.43064C84.3711 7.70077 84.3981 8.02493 84.4251 8.45715C84.4251 8.86235 84.4521 9.40261 84.4521 10.0239Z" fill="white"/>
<path fill-rule="evenodd" clip-rule="evenodd" d="M107.441 3.6751C107.441 3.54003 107.333 3.45898 107.225 3.45898H105.118C104.983 3.45898 104.902 3.56704 104.902 3.6751V11.482L99.7421 3.51302C99.7151 3.45898 99.688 3.45898 99.607 3.45898H97.6351C97.527 3.45898 97.4189 3.56704 97.4189 3.6751C97.4189 7.88918 97.4189 12.1303 97.4189 16.3444C97.4189 16.4794 97.527 16.5605 97.6351 16.5605H99.7421C99.8772 16.5605 99.9582 16.4524 99.9582 16.3444V8.51049L105.118 16.5065C105.145 16.5605 105.172 16.5605 105.253 16.5605H107.225C107.36 16.5605 107.441 16.4524 107.441 16.3444V3.6751Z" fill="white"/>
<path fill-rule="evenodd" clip-rule="evenodd" d="M93.259 3.6751C93.259 3.54003 93.1509 3.45898 93.0428 3.45898H90.9359C90.8008 3.45898 90.7197 3.56704 90.7197 3.6751V16.3444C90.7197 16.4794 90.8278 16.5605 90.9359 16.5605H93.0428C93.178 16.5605 93.259 16.4524 93.259 16.3444V3.6751Z" fill="white"/>
<path fill-rule="evenodd" clip-rule="evenodd" d="M67.9745 10.0222C67.9745 9.40094 67.9745 8.86067 68.0015 8.45546C68.0286 8.05026 68.0555 7.6991 68.1096 7.42896C68.2987 6.2944 69.1631 5.64608 70.2707 5.64608C71 5.64608 71.6483 5.91621 72.0535 6.53752C72.2426 6.80765 72.3777 7.1048 72.4588 7.45597C72.4588 7.48298 72.4857 7.51 72.5398 7.51H75.025C75.052 7.51 75.079 7.48298 75.079 7.45597C74.8088 5.91621 73.9985 4.53853 72.5398 3.8632C71.8644 3.53904 71.1081 3.37695 70.2707 3.37695C68.866 3.37695 67.6773 3.8632 66.7319 4.80866C66.1916 5.34893 65.8134 6.02427 65.6513 6.78064C65.5163 7.51 65.4353 8.61754 65.4353 10.0493C65.4353 11.481 65.5163 12.5615 65.6513 13.3179C65.7864 14.0742 66.1647 14.7495 66.7319 15.2899C67.7044 16.2623 68.866 16.7215 70.2707 16.7215C71.1081 16.7215 71.8644 16.5595 72.5398 16.2353C73.9985 15.56 74.8088 14.1553 75.079 12.6426C75.079 12.6155 75.079 12.5885 75.025 12.5885H72.5398C72.4857 12.5885 72.4857 12.6155 72.4588 12.6426C72.3777 12.9937 72.2426 13.3179 72.0535 13.561C71.6483 14.1553 70.973 14.4255 70.2707 14.4524C69.1631 14.4524 68.2987 13.7771 68.1096 12.6695C68.0555 12.3994 68.0286 12.0753 68.0015 11.643C67.9745 11.1838 67.9745 10.6436 67.9745 10.0222Z" fill="white"/>
<path fill-rule="evenodd" clip-rule="evenodd" d="M41.6908 3.67477C41.6908 3.53969 41.5829 3.45866 41.4748 3.45866H39.3677C39.2327 3.45866 39.1516 3.56671 39.1516 3.67477V16.3441C39.1516 16.4791 39.2597 16.5602 39.3677 16.5602H41.4748C41.6099 16.5602 41.6908 16.4521 41.6908 16.3441V12.6161L43.3928 10.5902L46.8775 16.5061C46.9044 16.5602 46.9585 16.5602 47.0125 16.5602H49.5788C49.6869 16.5602 49.7138 16.4791 49.6598 16.371L45.0946 8.64522L49.2817 3.62074C49.3627 3.51269 49.3357 3.43164 49.2006 3.43164H46.3912C46.3372 3.43164 46.3372 3.43164 46.3102 3.45866L41.7179 8.96938V3.67477H41.6908Z" fill="white"/>
<path fill-rule="evenodd" clip-rule="evenodd" d="M57.0887 14.3994C55.9 14.3994 54.8195 13.2918 54.8195 11.9952V3.6751C54.8195 3.54003 54.7114 3.45898 54.6034 3.45898H52.4964C52.3613 3.45898 52.2803 3.56704 52.2803 3.6751V11.9411C52.2803 14.8316 54.4413 16.6686 57.1157 16.6686C59.79 16.6686 61.951 14.8316 61.951 11.9411V3.6751C61.951 3.54003 61.843 3.45898 61.7349 3.45898H59.6279C59.4928 3.45898 59.4118 3.56704 59.4118 3.6751V11.9952C59.3578 13.3189 58.2773 14.3994 57.0887 14.3994Z" fill="white"/>
<path d="M44.6693 33.6874H39.3137V25.2324H40.5962V32.5355H44.6693V33.6874ZM59.492 33.6874H54.0888V25.2324H59.492V26.3843H55.3713V28.8543H58.8863V29.9943H55.3713V32.5355H59.492V33.6874ZM75.4227 33.6874H74.0571L73.4752 31.9893H70.1384L69.5565 33.6874H68.1909L71.2902 25.2324H72.3234L75.4227 33.6874ZM73.119 30.8968L71.8365 27.1443L70.5184 30.8968H73.119ZM90.7414 33.6874H89.2451L87.4639 30.1249H85.8608V33.6874H84.5783V25.2324H87.8558C88.6475 25.2324 89.2808 25.462 89.7558 25.9212C90.2387 26.3803 90.4801 26.974 90.4801 27.7024C90.4801 28.2803 90.3218 28.7671 90.0051 29.163C89.6964 29.5509 89.2926 29.8121 88.7939 29.9468L90.7414 33.6874ZM85.8608 26.3843V29.0324H87.7608C88.1962 29.0324 88.5445 28.9176 88.8057 28.688C89.067 28.4505 89.1976 28.1259 89.1976 27.7143C89.1976 27.3026 89.067 26.978 88.8057 26.7405C88.5445 26.503 88.1962 26.3843 87.7608 26.3843H85.8608ZM106.681 33.6874H105.505L101.598 27.738V33.6874H100.316V25.2324H101.492L105.398 31.1699V25.2324H106.681V33.6874Z" fill="white"/>
</g>
</svg>
