<svg width="189" height="40" viewBox="0 0 189 40" fill="none" xmlns="http://www.w3.org/2000/svg">
<path d="M32.8433 34.044L27.5298 39.3575L27.488 39.3742L27.4628 39.3073C27.2955 38.822 26.3416 35.9016 25.5132 32.4039C25.2036 31.0902 24.9525 29.8601 24.7517 28.7137C24.7433 28.6803 24.7433 28.6468 24.735 28.6133C24.1325 25.0738 24.0907 22.3626 24.6011 20.3711C25.2956 17.6181 27.3457 13.5598 29.2619 10.1123C25.8144 12.0285 21.756 14.0786 19.0031 14.7731C16.9279 15.3003 14.0745 15.2333 10.3258 14.5639C10.2923 14.5556 10.2588 14.5556 10.2253 14.5472C9.20447 14.3631 8.12504 14.1372 6.9703 13.861C3.46422 13.0326 0.543886 12.0704 0.0669254 11.9114C0.0334545 11.903 0.00836772 11.8946 0 11.8863L0.0167109 11.836L5.33021 6.52254C5.36369 6.53091 5.3888 6.53928 5.42227 6.54765C9.26305 7.62709 13.7733 8.56426 16.3421 8.42201C16.384 8.42201 16.4258 8.41366 16.4677 8.41366C16.8024 8.38855 17.1036 8.34671 17.3546 8.27976C20.9946 7.35931 29.2703 2.43911 32.1488 0.614943L32.3831 0.46432L32.6425 0.355535C34.1235 -0.263676 36.341 -0.171635 37.9309 1.41823C39.5291 3.01647 39.6128 5.22554 38.9936 6.70663L38.8848 6.96604L38.7342 7.20034C36.9184 10.0788 31.9982 18.3545 31.0693 21.9945C31.0442 22.0949 31.0191 22.1953 31.0024 22.3124C30.994 22.3543 30.9857 22.4045 30.9857 22.4547C30.6426 24.873 31.6467 29.8016 32.8015 33.9352C32.8266 33.9854 32.8349 34.0189 32.8433 34.044Z" fill="#FFFB00"/>
<path d="M7.65651 31.7178L5.49761 19.5511L17.6643 21.7099L19.8315 33.885L7.65651 31.7178Z" fill="#FFFB00"/>
<path d="M56.7364 10.0095H65.407C70.0489 10.0095 72.0049 12.1991 72.0049 15.4104C72.0049 17.6875 71.0123 19.0596 69.1731 19.7895C71.0415 20.5485 72.0925 22.0082 72.0925 24.2854C72.0925 27.4383 70.1365 29.7155 65.4946 29.7155H56.7364C55.6271 29.7155 55.1016 29.19 55.1016 28.1098V11.6152C55.1016 10.535 55.6271 10.0095 56.7364 10.0095ZM58.4881 21.1908V25.9786C58.4881 26.2122 58.634 26.2998 58.8676 26.2998H65.5822C67.655 26.2998 68.6184 25.3364 68.6184 23.7307C68.6184 22.0666 67.5966 21.1908 65.5822 21.1908H58.4881ZM58.4881 13.7463V18.3298H65.4946C67.5382 18.3298 68.5308 17.5708 68.5308 15.9651C68.5308 14.4178 67.6258 13.396 65.5238 13.396H58.8676C58.634 13.396 58.4881 13.5128 58.4881 13.7463Z" fill="white"/>
<path d="M75.0373 10.0095H78.4822V22.8841C78.4822 24.7817 79.4164 26.2706 82.511 26.2706H89.0357V29.7155H82.3066C77.0809 29.7155 75.0373 26.8544 75.0373 22.9133V10.0095Z" fill="white"/>
<path d="M101.325 13.8631L95.0773 29.7155H91.2821L98.2011 12.1991C98.9309 10.3598 100.274 9.65918 102.347 9.65918C104.39 9.65918 105.733 10.3598 106.434 12.1991L113.09 29.7155H109.266L103.281 13.8631C103.106 13.396 102.785 13.1917 102.317 13.1917C101.85 13.1917 101.529 13.396 101.325 13.8631Z" fill="white"/>
<path d="M121.24 10.0095H131.225V13.4544H121.124C119.343 13.4544 118.555 14.4178 118.555 15.7899C118.555 16.9869 119.168 18.1254 121.474 18.1254H126.087C131.458 18.1254 132.714 21.1032 132.714 23.935C132.714 27.2632 130.933 29.7155 126.437 29.7155H115.46V26.2706H126.554C128.422 26.2706 129.269 25.2488 129.269 23.8183C129.269 22.5337 128.597 21.366 126.174 21.366H121.591C116.336 21.366 115.11 18.4174 115.11 15.6731C115.11 12.4034 116.861 10.0095 121.24 10.0095Z" fill="white"/>
<path d="M134.139 10.0095H149.116V13.4544H143.364V29.7155H139.89V13.4544H134.139V10.0095Z" fill="white"/>
<path d="M152.219 10.0095H155.722V23.176C155.722 25.132 156.715 26.2706 158.992 26.2706H162.495C164.714 26.2706 165.735 25.132 165.735 23.176V10.0095H169.122V23.4387C169.122 27.5843 166.932 29.7155 162.728 29.7155H158.583C154.379 29.7155 152.219 27.5843 152.219 23.4387V10.0095Z" fill="white"/>
<path d="M172.564 10.0095H182.666C187.103 10.0095 189.001 12.7537 189.001 15.9067C189.001 18.8845 187.278 22.0958 182.666 22.0958H176.535C176.214 22.0958 176.039 22.2418 176.039 22.5921V29.7155H172.594V21.9207C172.594 19.7019 173.528 18.7969 175.688 18.7969H182.782C184.738 18.7969 185.527 17.454 185.527 16.0819C185.527 14.6514 184.68 13.4544 182.812 13.4544H172.564V10.0095Z" fill="white"/>
</svg>
