<svg class="button-sn" width="90" height="51" viewBox="0 0 90 51" fill="none" xmlns="http://www.w3.org/2000/svg">
<path d="M14.6851 4.40067C15.3893 2.08377 17.5259 0.5 19.9475 0.5H33H37.5H44.25C45.1528 0.5 46.0417 0.722218 46.8382 1.14704L47.9413 1.73531C48.8826 2.23738 49.9331 2.5 51 2.5H58.9067C60.0378 2.5 61.1495 2.20479 62.1316 1.64356L62.8646 1.22468C63.6957 0.749792 64.6362 0.5 65.5934 0.5H76.75H83.5C86.5376 0.5 89 2.96243 89 6V45C89 48.0376 86.5376 50.5 83.5 50.5H8.09451C4.40201 50.5 1.75845 46.9336 2.83218 43.4007L14.6851 4.40067Z" fill="#1A1B23" stroke="#1A1B23"></path>
<path d="M60 16.2407C59.9196 16.8558 59.8019 17.4656 59.6478 18.0667L56.3415 33.6135C56.2948 33.9151 56.1947 34.206 56.0461 34.4729C55.9447 34.6741 55.775 34.8333 55.5671 34.9222C55.3592 35.0112 55.1264 35.0243 54.9098 34.959C54.6023 34.8836 54.314 34.7449 54.0635 34.5521C52.3989 33.3196 50.7287 32.1041 49.0697 30.866C49.037 30.8292 48.9961 30.8002 48.9504 30.7816C48.9047 30.7628 48.8552 30.7548 48.8058 30.758C48.7564 30.7613 48.7084 30.7759 48.6655 30.8004C48.6228 30.8249 48.5862 30.859 48.5585 30.8999C47.7405 31.714 46.9053 32.5055 46.0872 33.3083C45.9447 33.4661 45.769 33.5909 45.5728 33.6739C45.3765 33.757 45.1643 33.7962 44.9511 33.7889C44.8125 33.7998 44.6746 33.7599 44.5637 33.6765C44.4527 33.5932 44.3763 33.4722 44.3489 33.3366C43.8376 31.7422 43.315 30.1536 42.7923 28.5595C42.6162 27.994 42.4344 27.4796 42.2697 26.9368C42.2491 26.8493 42.2041 26.7695 42.1397 26.7064C42.0754 26.6434 41.9943 26.5997 41.9061 26.5808C40.2813 26.0832 38.6565 25.5745 37.0261 25.0656C36.8093 25.0083 36.6011 24.9228 36.4069 24.8112C36.2979 24.7792 36.2011 24.7152 36.129 24.6279C36.0569 24.5404 36.0128 24.4335 36.0024 24.3208C35.992 24.2081 36.0158 24.0951 36.0707 23.996C36.1255 23.897 36.209 23.8167 36.3103 23.7654C36.592 23.5301 36.9158 23.3497 37.2647 23.2339L43.9171 20.6786L58.2843 15.1665L58.3981 15.1213C59.307 14.7595 59.9944 15.2287 60 16.2407ZM44.9738 32.2398C45.0647 32.1945 45.0533 32.1381 45.0591 32.0928C45.1669 30.9282 45.2805 29.7692 45.3772 28.6046C45.3816 28.4698 45.4141 28.3373 45.4728 28.2156C45.5315 28.0939 45.615 27.9858 45.7181 27.898C48.835 25.1127 51.9501 22.3181 55.0633 19.514C55.262 19.3387 55.4609 19.1635 55.6314 18.9826C55.7109 18.9034 55.8132 18.8186 55.7507 18.6942C55.6881 18.5699 55.5518 18.5699 55.4269 18.5868C55.1955 18.6263 54.976 18.7171 54.7849 18.8525C50.9597 21.2684 47.1251 23.6787 43.2809 26.0832C43.2355 26.1025 43.1948 26.1309 43.1612 26.1667C43.1276 26.2026 43.1019 26.2451 43.0859 26.2914C43.0698 26.3378 43.0637 26.3871 43.0679 26.4358C43.0721 26.4847 43.0866 26.5322 43.1104 26.575C43.5876 27.994 44.0478 29.4017 44.5137 30.8321C44.6841 31.2957 44.8375 31.7648 44.9738 32.2398Z" fill="#FDFDFD"></path>
</svg>