<svg width="247" height="37" viewBox="0 0 247 37" fill="none" xmlns="http://www.w3.org/2000/svg">
<g opacity="0.6" clip-path="url(#clip0_143_2994)">
<path d="M67.9064 30.2488H72.3383V12.8621H78.1338V8.65752H62.1487V12.8621H67.9064V30.2488ZM78.1338 30.2488H82.3006V22.976C82.3006 20.438 83.5885 18.9229 85.5961 18.9229C86.2779 18.9229 86.8461 19.0365 87.49 19.2638V15.0213C87.0355 14.9076 86.5431 14.8319 86.0885 14.8319C84.3839 14.8319 82.8309 15.9683 82.3006 17.4456V15.0213H78.1338V30.2488ZM95.4826 30.5897C97.566 30.5897 99.1569 29.5291 99.8766 28.5442V30.2488H104.043V15.0591H99.8766V16.7637C99.1948 15.7789 97.6039 14.7182 95.4826 14.7182C91.4295 14.7182 88.3234 18.3547 88.3234 22.6729C88.3234 26.9533 91.4295 30.5897 95.4826 30.5897ZM96.3538 26.8018C94.0432 26.8018 92.528 25.0593 92.528 22.6729C92.528 20.2865 94.0432 18.5441 96.3538 18.5441C98.6645 18.5441 100.18 20.2865 100.18 22.6729C100.18 25.0593 98.6645 26.8018 96.3538 26.8018ZM113.93 30.5897C116.013 30.5897 117.604 29.5291 118.324 28.5442V30.2488H122.491V7.44538H118.324V16.7637C117.642 15.7789 116.051 14.7182 113.93 14.7182C109.877 14.7182 106.771 18.3547 106.771 22.6729C106.809 26.9533 109.877 30.5897 113.93 30.5897ZM114.839 26.8018C112.528 26.8018 111.013 25.0593 111.013 22.6729C111.013 20.2865 112.528 18.5441 114.839 18.5441C117.15 18.5441 118.665 20.2865 118.665 22.6729C118.665 25.0593 117.15 26.8018 114.839 26.8018ZM128.286 12.7485C129.764 12.7485 130.976 11.5742 130.976 10.0969C130.976 8.61964 129.764 7.44538 128.286 7.44538C126.847 7.44538 125.635 8.61964 125.635 10.0969C125.673 11.5364 126.847 12.7106 128.286 12.7485ZM126.241 30.2488H130.407V15.2107H126.241V30.2488ZM134.082 30.2488H138.249V22.8244C138.249 19.9077 139.688 18.5062 141.62 18.5062C143.362 18.5062 144.309 19.832 144.309 22.029V30.2488H148.476V21.3471C148.476 17.4077 146.279 14.7182 142.605 14.7182C140.635 14.7182 139.082 15.5516 138.249 16.8016V15.0591H134.082V30.2488ZM159.082 26.1957C156.999 26.1957 155.219 24.6048 155.219 22.2941C155.219 19.9456 156.961 18.3925 159.082 18.3925C161.166 18.3925 162.946 19.9456 162.946 22.2941C162.946 24.6427 161.203 26.1957 159.082 26.1957ZM158.59 36.8398C163.249 36.8398 166.772 34.4534 166.772 28.9988V14.9834H162.605V16.688C161.772 15.5137 160.143 14.6425 158.211 14.6425C154.234 14.6425 151.052 18.0516 151.052 22.332C151.052 26.5745 154.234 29.9837 158.211 29.9837C160.143 29.9837 161.81 29.1124 162.605 27.976V28.9988C162.605 31.4231 160.976 33.1655 158.514 33.1655C156.809 33.1655 155.105 32.5973 153.779 31.2716L151.506 34.3777C153.249 36.0822 155.938 36.8398 158.59 36.8398ZM175.598 30.2488H179.537L188.477 8.65752H183.628L177.605 23.6578L171.507 8.65752H166.734L175.598 30.2488ZM192.265 12.5591C193.742 12.5591 194.916 11.3848 194.954 9.90754C194.954 8.43024 193.742 7.25598 192.265 7.25598C190.825 7.25598 189.613 8.43024 189.613 9.90754C189.613 11.3848 190.863 12.5591 192.265 12.5591ZM190.219 30.2488H194.386V15.0213H190.219V30.2488ZM205.144 30.5897C208.326 30.5897 210.75 29.2639 212.189 27.1806L209.083 24.8699C208.401 25.9306 207.075 26.8018 205.144 26.8018C203.136 26.8018 201.356 25.6654 201.091 23.6199H212.454C212.53 22.976 212.53 22.5593 212.53 22.1805C212.53 17.2183 209.045 14.7182 205.03 14.7182C200.409 14.7182 197.037 18.1653 197.037 22.635C197.113 27.4457 200.636 30.5897 205.144 30.5897ZM201.28 20.8168C201.697 18.9607 203.401 18.1653 204.954 18.1653C206.507 18.1653 208.022 18.9986 208.401 20.8168H201.28ZM228.174 30.2488H232.303L237.303 15.0213H232.834L229.993 24.7563L226.886 15.0213H223.705L220.636 24.7563L217.757 15.0213H213.326L218.364 30.2488H222.492L225.333 21.6123L228.174 30.2488Z" fill="white"/>
<path d="M26.8451 30.2484H18.4359V17.0663H10.0266V8.6571H26.8072V30.2484H26.8451ZM43.6636 30.2484H34.0801L43.0954 8.6571H52.6789L43.6636 30.2484ZM34.0422 8.6571C36.6938 8.6571 38.8529 10.8162 38.8529 13.4678C38.8529 16.1194 36.6938 18.2785 34.0422 18.2785C31.3906 18.2785 29.2315 16.1194 29.2315 13.4678C29.2694 10.8162 31.3906 8.6571 34.0422 8.6571Z" fill="white"/>
</g>
<defs>
<clipPath id="clip0_143_2994">
<rect width="246.974" height="36.3643" fill="white" transform="translate(0.0258789 0.443115)"/>
</clipPath>
</defs>
</svg>
