<svg width="87" height="41" viewBox="0 0 87 41" fill="none" xmlns="http://www.w3.org/2000/svg">
<path d="M74.9985 36.9449C74.1896 39.0844 72.1411 40.5 69.8538 40.5H56.5H52H44.982C44.2369 40.5 43.4995 40.3486 42.8147 40.055L41.3293 39.4181C40.52 39.0711 39.6485 38.8922 38.7679 38.8922H30.3122C29.3755 38.8922 28.4499 39.0946 27.5988 39.4856L26.4837 39.9979C25.7635 40.3287 24.9803 40.5 24.1877 40.5H12.75H6C2.96244 40.5 0.5 38.0376 0.5 35V6C0.5 2.96243 2.96244 0.5 6 0.5H80.8173C84.6636 0.5 87.3221 4.34707 85.9619 7.94492L74.9985 36.9449Z" stroke="#1A26FE"/>
</svg>
